<svg width="1750" height="4400" viewBox="0 0 1750 4400" fill="none" xmlns="http://www.w3.org/2000/svg">
<g id="background-desktop">
<g id="tr&#195;&#179;jkaty">
<path id="Polygon 49" d="M1239.23 865.937L1552.09 865.96L1395.68 1136.96L1239.23 865.937Z" fill="#63328B"/>
<path id="Polygon 50" d="M1396.02 577.472L1552.65 848.856H1239.23L1396.02 577.472Z" fill="#63328B"/>
<path id="Polygon 51" d="M1065.04 1154.58L1377.9 1154.6L1221.49 1425.61L1065.04 1154.58Z" fill="#63328B"/>
<path id="Polygon 52" d="M1221.83 866.114L1378.46 1137.5H1065.04L1221.83 866.114Z" fill="#63328B"/>
<path id="Polygon 53" d="M1411.82 1154.58L1724.68 1154.6L1568.27 1425.61L1411.82 1154.58Z" fill="#63328B"/>
<path id="Polygon 54" d="M1568.61 866.114L1725.24 1137.5H1411.82L1568.61 866.114Z" fill="#63328B"/>
<path id="Polygon 55" d="M1238.43 1444.14L1551.29 1444.16L1394.88 1715.17L1238.43 1444.14Z" fill="#63328B"/>
<path id="Polygon 56" d="M1395.22 1155.67L1551.85 1427.06H1238.43L1395.22 1155.67Z" fill="#63328B"/>
</g>
<g id="tr&#195;&#179;jkaty_2">
<path id="Polygon 49_2" d="M890.738 1442.43L1203.6 1442.46L1047.19 1713.46L890.738 1442.43Z" fill="#63328B"/>
<path id="Polygon 50_2" d="M1047.53 1153.97L1204.16 1425.35H890.737L1047.53 1153.97Z" fill="#63328B"/>
<path id="Polygon 51_2" d="M716.542 1731.08L1029.4 1731.1L872.993 2002.1L716.542 1731.08Z" fill="#63328B"/>
<path id="Polygon 52_2" d="M873.333 1442.61L1029.96 1713.99H716.543L873.333 1442.61Z" fill="#63328B"/>
<path id="Polygon 53_2" d="M1063.33 1731.08L1376.19 1731.1L1219.78 2002.1L1063.33 1731.08Z" fill="#63328B"/>
<path id="Polygon 54_2" d="M1220.12 1442.61L1376.75 1713.99H1063.33L1220.12 1442.61Z" fill="#63328B"/>
<path id="Polygon 55_2" d="M889.936 2020.63L1202.8 2020.66L1046.39 2291.66L889.936 2020.63Z" fill="#63328B"/>
<path id="Polygon 56_2" d="M1046.73 1732.17L1203.36 2003.55H889.936L1046.73 1732.17Z" fill="#63328B"/>
</g>
<g id="tr&#195;&#179;jkaty_3">
<path id="Polygon 49_3" d="M1238.38 2019.9L1551.24 2019.92L1394.83 2290.92L1238.38 2019.9Z" fill="#63328B"/>
<path id="Polygon 50_3" d="M1395.17 1731.43L1551.8 2002.81H1238.38L1395.17 1731.43Z" fill="#63328B"/>
<path id="Polygon 51_3" d="M1064.18 2308.54L1377.04 2308.56L1220.63 2579.57L1064.18 2308.54Z" fill="#63328B"/>
<path id="Polygon 52_3" d="M1220.97 2020.07L1377.6 2291.46H1064.18L1220.97 2020.07Z" fill="#63328B"/>
<path id="Polygon 53_3" d="M1410.97 2308.54L1723.83 2308.56L1567.42 2579.57L1410.97 2308.54Z" fill="#63328B"/>
<path id="Polygon 54_3" d="M1567.76 2020.07L1724.39 2291.46H1410.97L1567.76 2020.07Z" fill="#63328B"/>
<path id="Polygon 55_3" d="M1237.58 2598.1L1550.44 2598.12L1394.03 2869.12L1237.58 2598.1Z" fill="#63328B"/>
<path id="Polygon 56_3" d="M1394.37 2309.63L1551 2581.01H1237.58L1394.37 2309.63Z" fill="#63328B"/>
</g>
<g id="tr&#195;&#179;jkaty_4">
<path id="Polygon 49_4" d="M1586.87 1443.28L1899.73 1443.31L1743.32 1714.31L1586.87 1443.28Z" fill="#63328B"/>
<path id="Polygon 50_4" d="M1743.66 1154.82L1900.29 1426.2H1586.87L1743.66 1154.82Z" fill="#63328B"/>
<path id="Polygon 51_4" d="M1412.67 1731.93L1725.54 1731.95L1569.13 2002.95L1412.67 1731.93Z" fill="#63328B"/>
<path id="Polygon 52_4" d="M1569.47 1443.46L1726.09 1714.85H1412.68L1569.47 1443.46Z" fill="#63328B"/>
<path id="Polygon 55_4" d="M1586.07 2021.49L1898.93 2021.51L1742.52 2292.51L1586.07 2021.49Z" fill="#63328B"/>
<path id="Polygon 56_4" d="M1742.86 1733.02L1899.49 2004.4H1586.07L1742.86 1733.02Z" fill="#63328B"/>
</g>
<g id="tr&#195;&#179;jkaty_5">
<path id="Polygon 49_5" d="M1587.73 288.467L1900.59 288.49L1744.18 559.493L1587.73 288.467Z" fill="#63328B"/>
<path id="Polygon 50_5" d="M1744.52 0L1901.15 271.384L1587.73 271.384L1744.52 0Z" fill="#63328B"/>
<path id="Polygon 51_5" d="M1413.53 577.109L1726.4 577.132L1569.98 848.136L1413.53 577.109Z" fill="#63328B"/>
<path id="Polygon 52_5" d="M1570.32 288.64L1726.95 560.024H1413.53L1570.32 288.64Z" fill="#63328B"/>
<path id="Polygon 55_5" d="M1586.93 866.667L1899.79 866.69L1743.38 1137.69L1586.93 866.667Z" fill="#63328B"/>
<path id="Polygon 56_5" d="M1743.72 578.198L1900.35 849.582H1586.93L1743.72 578.198Z" fill="#63328B"/>
</g>
<g id="tr&#195;&#179;jkaty_6">
<path id="Polygon 49_6" d="M1585.16 2597.25L1898.03 2597.27L1741.61 2868.28L1585.16 2597.25Z" fill="#63328B"/>
<path id="Polygon 50_6" d="M1741.95 2308.78L1898.58 2580.17H1585.16L1741.95 2308.78Z" fill="#63328B"/>
<path id="Polygon 51_6" d="M1410.97 2885.89L1723.83 2885.92L1567.42 3156.92L1410.97 2885.89Z" fill="#63328B"/>
<path id="Polygon 52_6" d="M1567.76 2597.43L1724.39 2868.81H1410.97L1567.76 2597.43Z" fill="#63328B"/>
<path id="Polygon 55_6" d="M1584.36 3175.45L1897.22 3175.47L1740.81 3446.48L1584.36 3175.45Z" fill="#63328B"/>
<path id="Polygon 56_6" d="M1741.15 2886.98L1897.78 3158.37H1584.36L1741.15 2886.98Z" fill="#63328B"/>
</g>
<g id="tr&#195;&#179;jkaty_7">
<path id="Polygon 49_7" d="M1237.52 3173.8L1550.39 3173.83L1393.98 3444.83L1237.52 3173.8Z" fill="#63328B"/>
<path id="Polygon 50_7" d="M1394.31 2885.34L1550.94 3156.72H1237.52L1394.31 2885.34Z" fill="#63328B"/>
<path id="Polygon 51_7" d="M1063.33 3462.45L1376.19 3462.47L1219.78 3733.47L1063.33 3462.45Z" fill="#63328B"/>
<path id="Polygon 52_7" d="M1220.12 3173.98L1376.75 3445.36H1063.33L1220.12 3173.98Z" fill="#63328B"/>
<path id="Polygon 53_4" d="M1410.12 3462.45L1722.98 3462.47L1566.57 3733.47L1410.12 3462.45Z" fill="#63328B"/>
<path id="Polygon 54_4" d="M1566.9 3173.98L1723.53 3445.36H1410.11L1566.9 3173.98Z" fill="#63328B"/>
<path id="Polygon 55_7" d="M1236.72 3752L1549.58 3752.03L1393.17 4023.03L1236.72 3752Z" fill="#63328B"/>
<path id="Polygon 56_7" d="M1393.51 3463.54L1550.14 3734.92H1236.72L1393.51 3463.54Z" fill="#63328B"/>
</g>
<g id="tr&#195;&#179;jkaty_8">
<path id="Polygon 49_8" d="M890.738 2598.1L1203.6 2598.12L1047.19 2869.13L890.738 2598.1Z" fill="#63328B"/>
<path id="Polygon 50_8" d="M1047.53 2309.63L1204.16 2581.02H890.736L1047.53 2309.63Z" fill="#63328B"/>
<path id="Polygon 51_8" d="M716.542 2886.74L1029.4 2886.77L872.993 3157.77L716.542 2886.74Z" fill="#63328B"/>
<path id="Polygon 52_8" d="M873.333 2598.28L1029.96 2869.66H716.543L873.333 2598.28Z" fill="#63328B"/>
<path id="Polygon 53_5" d="M1063.33 2886.74L1376.19 2886.77L1219.78 3157.77L1063.33 2886.74Z" fill="#63328B"/>
<path id="Polygon 54_5" d="M1220.12 2598.28L1376.75 2869.66H1063.33L1220.12 2598.28Z" fill="#63328B"/>
<path id="Polygon 55_8" d="M889.936 3175.45L1202.8 3175.47L1046.39 3446.47L889.936 3175.45Z" fill="#63328B"/>
<path id="Polygon 56_8" d="M1046.73 2887.83L1203.36 3159.22H889.936L1046.73 2887.83Z" fill="#63328B"/>
</g>
<g id="tr&#195;&#179;jkaty_9">
<path id="Polygon 49_9" d="M543.948 2021.55L856.81 2021.57L700.399 2292.57L543.948 2021.55Z" fill="#63328B"/>
<path id="Polygon 50_9" d="M700.737 1733.08L857.366 2004.47H543.947L700.737 1733.08Z" fill="#63328B"/>
<path id="Polygon 51_9" d="M369.752 2310.19L682.613 2310.21L526.203 2581.22L369.752 2310.19Z" fill="#63328B"/>
<path id="Polygon 52_9" d="M526.543 2021.72L683.172 2293.11H369.753L526.543 2021.72Z" fill="#63328B"/>
<path id="Polygon 53_6" d="M716.539 2310.19L1029.4 2310.21L872.99 2581.22L716.539 2310.19Z" fill="#63328B"/>
<path id="Polygon 54_6" d="M873.329 2021.72L1029.96 2293.11H716.539L873.329 2021.72Z" fill="#63328B"/>
<path id="Polygon 55_9" d="M543.146 2598.89L856.007 2598.92L699.596 2869.92L543.146 2598.89Z" fill="#63328B"/>
<path id="Polygon 56_9" d="M699.936 2311.28L856.565 2582.66H543.146L699.936 2311.28Z" fill="#63328B"/>
</g>
<g id="tr&#195;&#179;jkaty_10">
<path id="Polygon 49_10" d="M889.886 3751.21L1202.75 3751.23L1046.34 4022.24L889.886 3751.21Z" fill="#63328B"/>
<path id="Polygon 50_10" d="M1046.67 3462.74L1203.3 3734.13H889.885L1046.67 3462.74Z" fill="#63328B"/>
<path id="Polygon 51_10" d="M715.689 4039.85L1028.55 4039.88L872.14 4310.88L715.689 4039.85Z" fill="#63328B"/>
<path id="Polygon 52_10" d="M872.48 3751.39L1029.11 4022.77H715.69L872.48 3751.39Z" fill="#63328B"/>
<path id="Polygon 53_7" d="M1062.48 4039.85L1375.34 4039.88L1218.93 4310.88L1062.48 4039.85Z" fill="#63328B"/>
<path id="Polygon 54_7" d="M1219.27 3751.39L1375.9 4022.77H1062.48L1219.27 3751.39Z" fill="#63328B"/>
<path id="Polygon 55_10" d="M889.083 4329.41L1201.94 4329.43L1045.53 4600.44L889.083 4329.41Z" fill="#63328B"/>
<path id="Polygon 56_10" d="M1045.87 4040.94L1202.5 4312.33H889.084L1045.87 4040.94Z" fill="#63328B"/>
</g>
<g id="tr&#195;&#179;jkaty_11">
<path id="Polygon 49_11" d="M543.948 3176.36L856.81 3176.39L700.399 3447.39L543.948 3176.36Z" fill="#63328B"/>
<path id="Polygon 50_11" d="M700.737 2887.9L857.366 3159.28H543.947L700.737 2887.9Z" fill="#63328B"/>
<path id="Polygon 51_11" d="M369.752 3465.01L682.613 3465.03L526.203 3736.03L369.752 3465.01Z" fill="#63328B"/>
<path id="Polygon 52_11" d="M526.543 3176.54L683.172 3447.92H369.753L526.543 3176.54Z" fill="#63328B"/>
<path id="Polygon 53_8" d="M716.539 3465.01L1029.4 3465.03L872.99 3736.03L716.539 3465.01Z" fill="#63328B"/>
<path id="Polygon 54_8" d="M873.329 3176.54L1029.96 3447.92H716.539L873.329 3176.54Z" fill="#63328B"/>
<path id="Polygon 55_11" d="M543.146 3753.71L856.007 3753.73L699.596 4024.74L543.146 3753.71Z" fill="#63328B"/>
<path id="Polygon 56_11" d="M699.936 3466.1L856.565 3737.48H543.146L699.936 3466.1Z" fill="#63328B"/>
</g>
<g id="tr&#195;&#179;jkaty_12">
<path id="Polygon 49_12" d="M542.242 4328.62L855.104 4328.64L698.693 4599.65L542.242 4328.62Z" fill="#63328B"/>
<path id="Polygon 50_12" d="M699.031 4040.15L855.66 4311.54H542.241L699.031 4040.15Z" fill="#63328B"/>
<path id="Polygon 52_12" d="M524.837 4328.8L681.467 4600.18H368.048L524.837 4328.8Z" fill="#63328B"/>
<path id="Polygon 54_9" d="M871.623 4328.8L1028.25 4600.18H714.833L871.623 4328.8Z" fill="#63328B"/>
</g>
<g id="tr&#195;&#179;jkaty_13">
<path id="Polygon 49_13" d="M-151.334 4329.47L161.527 4329.5L5.11677 4600.5L-151.334 4329.47Z" fill="#63328B"/>
<path id="Polygon 50_13" d="M5.45659 4041.01L162.086 4312.39H-151.333L5.45659 4041.01Z" fill="#63328B"/>
<path id="Polygon 54_10" d="M178.05 4329.65L334.68 4601.03H21.2605L178.05 4329.65Z" fill="#63328B"/>
</g>
<g id="tr&#195;&#179;jkaty_14">
<path id="Polygon 49_14" d="M-150.48 3177.22L162.381 3177.24L5.97028 3448.25L-150.48 3177.22Z" fill="#63328B"/>
<path id="Polygon 50_14" d="M6.3101 2888.75L162.939 3160.14H-150.48L6.3101 2888.75Z" fill="#63328B"/>
<path id="Polygon 53_9" d="M22.1123 3465.86L334.974 3465.88L178.563 3736.89L22.1123 3465.86Z" fill="#63328B"/>
<path id="Polygon 54_11" d="M178.903 3177.39L335.532 3448.78H22.113L178.903 3177.39Z" fill="#63328B"/>
<path id="Polygon 55_12" d="M-151.281 3755.42L161.58 3755.44L5.1695 4026.45L-151.281 3755.42Z" fill="#63328B"/>
<path id="Polygon 56_12" d="M5.50932 3466.95L162.139 3738.33H-151.281L5.50932 3466.95Z" fill="#63328B"/>
</g>
<g id="tr&#195;&#179;jkaty_15">
<path id="Polygon 49_15" d="M196.308 3753.77L509.169 3753.79L352.758 4024.8L196.308 3753.77Z" fill="#63328B"/>
<path id="Polygon 50_15" d="M353.096 3465.3L509.726 3736.69H196.306L353.096 3465.3Z" fill="#63328B"/>
<path id="Polygon 51_12" d="M22.1113 4042.41L334.973 4042.44L178.562 4313.44L22.1113 4042.41Z" fill="#63328B"/>
<path id="Polygon 52_13" d="M178.902 3753.95L335.531 4025.33H22.1121L178.902 3753.95Z" fill="#63328B"/>
<path id="Polygon 53_10" d="M368.898 4042.41L681.76 4042.44L525.349 4313.44L368.898 4042.41Z" fill="#63328B"/>
<path id="Polygon 54_12" d="M525.688 3753.95L682.317 4025.33H368.898L525.688 3753.95Z" fill="#63328B"/>
<path id="Polygon 55_13" d="M195.505 4331.12L508.366 4331.14L351.956 4602.14L195.505 4331.12Z" fill="#63328B"/>
<path id="Polygon 56_13" d="M352.295 4043.5L508.925 4314.89H195.506L352.295 4043.5Z" fill="#63328B"/>
</g>
<g id="tr&#195;&#179;jkaty_16">
<path id="Polygon 49_16" d="M197.165 2599.81L510.026 2599.83L353.616 2870.84L197.165 2599.81Z" fill="#63328B"/>
<path id="Polygon 50_16" d="M353.953 2311.34L510.582 2582.73H197.163L353.953 2311.34Z" fill="#63328B"/>
<path id="Polygon 51_13" d="M22.9688 2888.45L335.83 2888.48L179.42 3159.48L22.9688 2888.45Z" fill="#63328B"/>
<path id="Polygon 52_14" d="M179.759 2599.99L336.389 2871.37H22.9695L179.759 2599.99Z" fill="#63328B"/>
<path id="Polygon 53_11" d="M369.756 2888.45L682.617 2888.48L526.207 3159.48L369.756 2888.45Z" fill="#63328B"/>
<path id="Polygon 54_13" d="M526.545 2599.99L683.175 2871.37H369.756L526.545 2599.99Z" fill="#63328B"/>
<path id="Polygon 55_14" d="M196.362 3177.16L509.224 3177.18L352.813 3448.18L196.362 3177.16Z" fill="#63328B"/>
<path id="Polygon 56_14" d="M353.153 2889.54L509.782 3160.93H196.363L353.153 2889.54Z" fill="#63328B"/>
</g>
</g>
</svg>
