<svg width="1950" height="4400" viewBox="0 0 1950 4400" fill="none" xmlns="http://www.w3.org/2000/svg">
<g id="background-desktop-large">
<g id="tr&#195;&#179;jkaty">
<path id="Polygon 49" d="M1378.66 969.424L1729.64 969.45L1554.17 1273.47L1378.66 969.424Z" fill="#63328B"/>
<path id="Polygon 50" d="M1554.55 645.818L1730.26 950.262H1378.66L1554.55 645.818Z" fill="#63328B"/>
<path id="Polygon 51" d="M1183.25 1293.23L1534.22 1293.26L1358.76 1597.27L1183.25 1293.23Z" fill="#63328B"/>
<path id="Polygon 52" d="M1359.14 969.623L1534.85 1274.07H1183.25L1359.14 969.623Z" fill="#63328B"/>
<path id="Polygon 53" d="M1572.28 1293.23L1923.25 1293.26L1747.79 1597.27L1572.28 1293.23Z" fill="#63328B"/>
<path id="Polygon 54" d="M1748.17 969.623L1923.88 1274.07H1572.28L1748.17 969.623Z" fill="#63328B"/>
<path id="Polygon 55" d="M1377.76 1618.06L1728.74 1618.09L1553.27 1922.1L1377.76 1618.06Z" fill="#63328B"/>
<path id="Polygon 56" d="M1553.65 1294.45L1729.36 1598.9H1377.76L1553.65 1294.45Z" fill="#63328B"/>
</g>
<g id="tr&#195;&#179;jkaty_2">
<path id="Polygon 49_2" d="M987.718 1616.14L1338.69 1616.17L1163.23 1920.19L987.718 1616.14Z" fill="#63328B"/>
<path id="Polygon 50_2" d="M1163.61 1292.54L1339.32 1596.98H987.717L1163.61 1292.54Z" fill="#63328B"/>
<path id="Polygon 51_2" d="M792.301 1939.95L1143.27 1939.98L967.81 2243.99L792.301 1939.95Z" fill="#63328B"/>
<path id="Polygon 52_2" d="M968.191 1616.34L1143.9 1920.79H792.302L968.191 1616.34Z" fill="#63328B"/>
<path id="Polygon 53_2" d="M1181.33 1939.95L1532.31 1939.98L1356.84 2243.99L1181.33 1939.95Z" fill="#63328B"/>
<path id="Polygon 54_2" d="M1357.22 1616.34L1532.93 1920.79H1181.33L1357.22 1616.34Z" fill="#63328B"/>
<path id="Polygon 55_2" d="M986.817 2264.78L1337.79 2264.81L1162.33 2568.82L986.817 2264.78Z" fill="#63328B"/>
<path id="Polygon 56_2" d="M1162.71 1941.17L1338.42 2245.62H986.817L1162.71 1941.17Z" fill="#63328B"/>
</g>
<g id="tr&#195;&#179;jkaty_3">
<path id="Polygon 49_3" d="M1377.71 2263.95L1728.68 2263.98L1553.22 2568L1377.71 2263.95Z" fill="#63328B"/>
<path id="Polygon 50_3" d="M1553.6 1940.35L1729.3 2244.79H1377.71L1553.6 1940.35Z" fill="#63328B"/>
<path id="Polygon 51_3" d="M1182.29 2587.76L1533.26 2587.79L1357.8 2891.8L1182.29 2587.76Z" fill="#63328B"/>
<path id="Polygon 52_3" d="M1358.18 2264.15L1533.89 2568.59H1182.29L1358.18 2264.15Z" fill="#63328B"/>
<path id="Polygon 53_3" d="M1571.32 2587.76L1922.29 2587.79L1746.83 2891.8L1571.32 2587.76Z" fill="#63328B"/>
<path id="Polygon 54_3" d="M1747.21 2264.15L1922.92 2568.59H1571.32L1747.21 2264.15Z" fill="#63328B"/>
<path id="Polygon 55_3" d="M1376.81 2912.59L1727.78 2912.62L1552.32 3216.63L1376.81 2912.59Z" fill="#63328B"/>
<path id="Polygon 56_3" d="M1552.7 2588.98L1728.41 2893.42H1376.81L1552.7 2588.98Z" fill="#63328B"/>
</g>
<g id="tr&#195;&#179;jkaty_4">
<path id="Polygon 49_4" d="M1768.65 1617.1L2119.63 1617.13L1944.16 1921.14L1768.65 1617.1Z" fill="#63328B"/>
<path id="Polygon 50_4" d="M1944.54 1293.5L2120.25 1597.94H1768.65L1944.54 1293.5Z" fill="#63328B"/>
<path id="Polygon 51_4" d="M1573.24 1940.91L1924.21 1940.93L1748.74 2244.95L1573.24 1940.91Z" fill="#63328B"/>
<path id="Polygon 52_4" d="M1749.13 1617.3L1924.84 1921.74H1573.24L1749.13 1617.3Z" fill="#63328B"/>
<path id="Polygon 55_4" d="M1767.75 2265.74L2118.72 2265.76L1943.26 2569.78L1767.75 2265.74Z" fill="#63328B"/>
<path id="Polygon 56_4" d="M1943.64 1942.13L2119.35 2246.57H1767.75L1943.64 1942.13Z" fill="#63328B"/>
</g>
<g id="tr&#195;&#179;jkaty_5">
<path id="Polygon 49_5" d="M1769.62 321.607L2120.59 321.633L1945.13 625.649L1769.62 321.607Z" fill="#63328B"/>
<path id="Polygon 50_5" d="M1945.5 -2L2121.21 302.443L1769.61 302.443L1945.5 -2Z" fill="#63328B"/>
<path id="Polygon 51_5" d="M1574.2 645.412L1925.17 645.437L1749.71 949.454L1574.2 645.412Z" fill="#63328B"/>
<path id="Polygon 52_5" d="M1750.09 321.802L1925.8 626.245H1574.2L1750.09 321.802Z" fill="#63328B"/>
<path id="Polygon 55_5" d="M1768.72 970.242L2119.69 970.268L1944.22 1274.28L1768.72 970.242Z" fill="#63328B"/>
<path id="Polygon 56_5" d="M1944.61 646.633L2120.31 951.076H1768.72L1944.61 646.633Z" fill="#63328B"/>
</g>
<g id="tr&#195;&#179;jkaty_6">
<path id="Polygon 49_6" d="M1766.74 2911.64L2117.71 2911.67L1942.25 3215.68L1766.74 2911.64Z" fill="#63328B"/>
<path id="Polygon 50_6" d="M1942.62 2588.03L2118.33 2892.48H1766.74L1942.62 2588.03Z" fill="#63328B"/>
<path id="Polygon 51_6" d="M1571.32 3235.44L1922.29 3235.47L1746.83 3539.49L1571.32 3235.44Z" fill="#63328B"/>
<path id="Polygon 52_6" d="M1747.21 2911.84L1922.92 3216.28H1571.32L1747.21 2911.84Z" fill="#63328B"/>
<path id="Polygon 55_6" d="M1765.84 3560.27L2116.81 3560.3L1941.35 3864.32L1765.84 3560.27Z" fill="#63328B"/>
<path id="Polygon 56_6" d="M1941.73 3236.67L2117.44 3541.11H1765.84L1941.73 3236.67Z" fill="#63328B"/>
</g>
<g id="tr&#195;&#179;jkaty_7">
<path id="Polygon 49_7" d="M1376.75 3558.43L1727.72 3558.45L1552.26 3862.47L1376.75 3558.43Z" fill="#63328B"/>
<path id="Polygon 50_7" d="M1552.64 3234.82L1728.35 3539.26H1376.75L1552.64 3234.82Z" fill="#63328B"/>
<path id="Polygon 51_7" d="M1181.33 3882.23L1532.31 3882.26L1356.84 4186.27L1181.33 3882.23Z" fill="#63328B"/>
<path id="Polygon 52_7" d="M1357.22 3558.62L1532.93 3863.07H1181.33L1357.22 3558.62Z" fill="#63328B"/>
<path id="Polygon 53_4" d="M1570.36 3882.23L1921.34 3882.26L1745.87 4186.27L1570.36 3882.23Z" fill="#63328B"/>
<path id="Polygon 54_4" d="M1746.25 3558.62L1921.96 3863.07H1570.36L1746.25 3558.62Z" fill="#63328B"/>
<path id="Polygon 55_7" d="M1375.85 4207.06L1726.82 4207.09L1551.36 4511.1L1375.85 4207.06Z" fill="#63328B"/>
<path id="Polygon 56_7" d="M1551.74 3883.45L1727.45 4187.9H1375.85L1551.74 3883.45Z" fill="#63328B"/>
</g>
<g id="tr&#195;&#179;jkaty_8">
<path id="Polygon 49_8" d="M987.718 2912.59L1338.69 2912.62L1163.23 3216.63L987.718 2912.59Z" fill="#63328B"/>
<path id="Polygon 50_8" d="M1163.61 2588.99L1339.31 2893.43H987.716L1163.61 2588.99Z" fill="#63328B"/>
<path id="Polygon 51_8" d="M792.301 3236.4L1143.27 3236.42L967.81 3540.44L792.301 3236.4Z" fill="#63328B"/>
<path id="Polygon 52_8" d="M968.191 2912.79L1143.9 3217.23H792.302L968.191 2912.79Z" fill="#63328B"/>
<path id="Polygon 53_5" d="M1181.33 3236.4L1532.31 3236.42L1356.84 3540.44L1181.33 3236.4Z" fill="#63328B"/>
<path id="Polygon 54_5" d="M1357.22 2912.79L1532.93 3217.23H1181.33L1357.22 2912.79Z" fill="#63328B"/>
<path id="Polygon 55_8" d="M986.817 3560.27L1337.79 3560.29L1162.33 3864.31L986.817 3560.27Z" fill="#63328B"/>
<path id="Polygon 56_8" d="M1162.71 3237.62L1338.42 3542.06H986.817L1162.71 3237.62Z" fill="#63328B"/>
</g>
<g id="tr&#195;&#179;jkaty_9">
<path id="Polygon 49_9" d="M598.684 2265.81L949.657 2265.83L774.193 2569.85L598.684 2265.81Z" fill="#63328B"/>
<path id="Polygon 50_9" d="M774.572 1942.2L950.282 2246.64H598.682L774.572 1942.2Z" fill="#63328B"/>
<path id="Polygon 51_9" d="M403.267 2589.61L754.24 2589.64L578.776 2893.65L403.267 2589.61Z" fill="#63328B"/>
<path id="Polygon 52_9" d="M579.157 2266L754.866 2570.45H403.267L579.157 2266Z" fill="#63328B"/>
<path id="Polygon 53_6" d="M792.298 2589.61L1143.27 2589.64L967.807 2893.65L792.298 2589.61Z" fill="#63328B"/>
<path id="Polygon 54_6" d="M968.188 2266L1143.9 2570.45H792.299L968.188 2266Z" fill="#63328B"/>
<path id="Polygon 55_9" d="M597.783 2913.48L948.756 2913.51L773.292 3217.53L597.783 2913.48Z" fill="#63328B"/>
<path id="Polygon 56_9" d="M773.673 2590.83L949.382 2895.28H597.783L773.673 2590.83Z" fill="#63328B"/>
</g>
<g id="tr&#195;&#179;jkaty_10">
<path id="Polygon 49_10" d="M986.761 4206.17L1337.73 4206.2L1162.27 4510.21L986.761 4206.17Z" fill="#63328B"/>
<path id="Polygon 50_10" d="M1162.65 3882.57L1338.36 4187.01H986.761L1162.65 3882.57Z" fill="#63328B"/>
<path id="Polygon 52_10" d="M967.235 4206.37L1142.94 4510.81H791.346L967.235 4206.37Z" fill="#63328B"/>
<path id="Polygon 54_7" d="M1356.27 4206.37L1531.98 4510.81H1180.38L1356.27 4206.37Z" fill="#63328B"/>
</g>
<g id="tr&#195;&#179;jkaty_11">
<path id="Polygon 49_11" d="M598.684 3561.3L949.657 3561.33L774.193 3865.34L598.684 3561.3Z" fill="#63328B"/>
<path id="Polygon 50_11" d="M774.572 3237.69L950.282 3542.14H598.682L774.572 3237.69Z" fill="#63328B"/>
<path id="Polygon 51_10" d="M403.267 3885.1L754.24 3885.13L578.776 4189.15L403.267 3885.1Z" fill="#63328B"/>
<path id="Polygon 52_11" d="M579.157 3561.5L754.866 3865.94H403.267L579.157 3561.5Z" fill="#63328B"/>
<path id="Polygon 53_7" d="M792.298 3885.1L1143.27 3885.13L967.807 4189.15L792.298 3885.1Z" fill="#63328B"/>
<path id="Polygon 54_8" d="M968.188 3561.5L1143.9 3865.94H792.299L968.188 3561.5Z" fill="#63328B"/>
<path id="Polygon 55_10" d="M597.783 4208.98L948.756 4209L773.292 4513.02L597.783 4208.98Z" fill="#63328B"/>
<path id="Polygon 56_10" d="M773.673 3886.33L949.382 4190.77H597.783L773.673 3886.33Z" fill="#63328B"/>
</g>
<g id="tr&#195;&#179;jkaty_12">
<path id="Polygon 49_12" d="M-180.339 3562.26L170.634 3562.28L-4.8302 3866.3L-180.339 3562.26Z" fill="#63328B"/>
<path id="Polygon 50_12" d="M-4.44951 3238.65L171.26 3543.09H-180.339L-4.44951 3238.65Z" fill="#63328B"/>
<path id="Polygon 53_8" d="M13.2779 3886.06L364.251 3886.09L188.787 4190.1L13.2779 3886.06Z" fill="#63328B"/>
<path id="Polygon 54_9" d="M189.168 3562.46L364.877 3866.9H13.2782L189.168 3562.46Z" fill="#63328B"/>
<path id="Polygon 55_11" d="M-181.238 4210.89L169.735 4210.92L-5.72864 4514.93L-181.238 4210.89Z" fill="#63328B"/>
<path id="Polygon 56_11" d="M-5.34795 3887.28L170.362 4191.73H-181.237L-5.34795 3887.28Z" fill="#63328B"/>
</g>
<g id="tr&#195;&#179;jkaty_13">
<path id="Polygon 49_13" d="M208.693 4209.04L559.666 4209.07L384.202 4513.09L208.693 4209.04Z" fill="#63328B"/>
<path id="Polygon 50_13" d="M384.582 3885.44L560.291 4189.88H208.692L384.582 3885.44Z" fill="#63328B"/>
<path id="Polygon 52_12" d="M189.167 4209.24L364.876 4513.68H13.2772L189.167 4209.24Z" fill="#63328B"/>
<path id="Polygon 54_10" d="M578.198 4209.24L753.907 4513.68H402.308L578.198 4209.24Z" fill="#63328B"/>
</g>
<g id="tr&#195;&#179;jkaty_14">
<path id="Polygon 49_14" d="M209.657 2914.51L560.63 2914.54L385.166 3218.55L209.657 2914.51Z" fill="#63328B"/>
<path id="Polygon 50_14" d="M385.544 2590.91L561.253 2895.35H209.654L385.544 2590.91Z" fill="#63328B"/>
<path id="Polygon 51_11" d="M14.2398 3238.32L365.213 3238.34L189.749 3542.36L14.2398 3238.32Z" fill="#63328B"/>
<path id="Polygon 52_13" d="M190.13 2914.71L365.839 3219.15H14.2401L190.13 2914.71Z" fill="#63328B"/>
<path id="Polygon 53_9" d="M403.272 3238.32L754.245 3238.34L578.781 3542.36L403.272 3238.32Z" fill="#63328B"/>
<path id="Polygon 54_11" d="M579.161 2914.71L754.87 3219.15H403.271L579.161 2914.71Z" fill="#63328B"/>
<path id="Polygon 55_12" d="M208.755 3562.19L559.729 3562.22L384.265 3866.23L208.755 3562.19Z" fill="#63328B"/>
<path id="Polygon 56_12" d="M384.645 3239.54L560.355 3543.98H208.756L384.645 3239.54Z" fill="#63328B"/>
</g>
</g>
</svg>
