<svg width="1200" height="4395" viewBox="0 0 1200 4395" fill="none" xmlns="http://www.w3.org/2000/svg">
<g id="background-middle">
<g id="tr&#195;&#179;jkaty">
<path id="Polygon 49" d="M847.553 603.201L1065.84 603.217L956.709 792.297L847.553 603.201Z" fill="#63328B"/>
<path id="Polygon 50" d="M956.946 401.938L1066.23 591.283H847.553L956.946 401.938Z" fill="#63328B"/>
<path id="Polygon 51" d="M726.016 804.588L944.3 804.605L835.172 993.685L726.016 804.588Z" fill="#63328B"/>
<path id="Polygon 52" d="M835.409 603.324L944.69 792.67H726.017L835.409 603.324Z" fill="#63328B"/>
<path id="Polygon 53" d="M967.97 804.588L1186.25 804.605L1077.13 993.685L967.97 804.588Z" fill="#63328B"/>
<path id="Polygon 54" d="M1077.36 603.324L1186.64 792.67H967.97L1077.36 603.324Z" fill="#63328B"/>
<path id="Polygon 55" d="M846.993 1006.61L1065.28 1006.63L956.15 1195.71L846.993 1006.61Z" fill="#63328B"/>
<path id="Polygon 56" d="M956.387 805.35L1065.67 994.695H846.994L956.387 805.35Z" fill="#63328B"/>
</g>
<g id="tr&#195;&#179;jkaty_2">
<path id="Polygon 49_2" d="M604.409 1005.42L822.693 1005.44L713.565 1194.52L604.409 1005.42Z" fill="#63328B"/>
<path id="Polygon 50_2" d="M713.801 804.16L823.082 993.506H604.408L713.801 804.16Z" fill="#63328B"/>
<path id="Polygon 51_2" d="M482.871 1206.81L701.156 1206.83L592.028 1395.91L482.871 1206.81Z" fill="#63328B"/>
<path id="Polygon 52_2" d="M592.265 1005.55L701.546 1194.89H482.872L592.265 1005.55Z" fill="#63328B"/>
<path id="Polygon 53_2" d="M724.826 1206.81L943.11 1206.83L833.982 1395.91L724.826 1206.81Z" fill="#63328B"/>
<path id="Polygon 54_2" d="M834.218 1005.55L943.499 1194.89H724.825L834.218 1005.55Z" fill="#63328B"/>
<path id="Polygon 55_2" d="M603.849 1408.84L822.133 1408.85L713.005 1597.93L603.849 1408.84Z" fill="#63328B"/>
<path id="Polygon 56_2" d="M713.242 1207.57L822.523 1396.92H603.85L713.242 1207.57Z" fill="#63328B"/>
</g>
<g id="tr&#195;&#179;jkaty_3">
<path id="Polygon 49_3" d="M846.956 1408.32L1065.24 1408.34L956.113 1597.42L846.956 1408.32Z" fill="#63328B"/>
<path id="Polygon 50_3" d="M956.349 1207.06L1065.63 1396.4H846.956L956.349 1207.06Z" fill="#63328B"/>
<path id="Polygon 51_3" d="M725.419 1609.71L943.704 1609.72L834.575 1798.8L725.419 1609.71Z" fill="#63328B"/>
<path id="Polygon 52_3" d="M834.813 1408.44L944.094 1597.79H725.42L834.813 1408.44Z" fill="#63328B"/>
<path id="Polygon 53_3" d="M967.372 1609.71L1185.66 1609.72L1076.53 1798.8L967.372 1609.71Z" fill="#63328B"/>
<path id="Polygon 54_3" d="M1076.77 1408.44L1186.05 1597.79H967.373L1076.77 1408.44Z" fill="#63328B"/>
<path id="Polygon 55_3" d="M846.397 1811.73L1064.68 1811.75L955.553 2000.83L846.397 1811.73Z" fill="#63328B"/>
<path id="Polygon 56_3" d="M955.79 1610.47L1065.07 1799.81H846.398L955.79 1610.47Z" fill="#63328B"/>
</g>
<g id="tr&#195;&#179;jkaty_4">
<path id="Polygon 49_4" d="M1090.1 1006.02L1308.39 1006.03L1199.26 1195.11L1090.1 1006.02Z" fill="#63328B"/>
<path id="Polygon 50_4" d="M1199.5 804.754L1308.78 994.1H1090.1L1199.5 804.754Z" fill="#63328B"/>
<path id="Polygon 51_4" d="M968.566 1207.4L1186.85 1207.42L1077.72 1396.5L968.566 1207.4Z" fill="#63328B"/>
<path id="Polygon 52_4" d="M1077.96 1006.14L1187.24 1195.49H968.566L1077.96 1006.14Z" fill="#63328B"/>
<path id="Polygon 55_4" d="M1089.54 1409.43L1307.83 1409.45L1198.7 1598.53L1089.54 1409.43Z" fill="#63328B"/>
<path id="Polygon 56_4" d="M1198.94 1208.17L1308.22 1397.51H1089.54L1198.94 1208.17Z" fill="#63328B"/>
</g>
<g id="tr&#195;&#179;jkaty_5">
<path id="Polygon 49_5" d="M1090.7 200.298L1308.99 200.315L1199.86 389.395L1090.7 200.298Z" fill="#63328B"/>
<path id="Polygon 50_5" d="M1200.09 -0.966309L1309.37 188.379L1090.7 188.379L1200.09 -0.966309Z" fill="#63328B"/>
<path id="Polygon 51_5" d="M969.165 401.685L1187.45 401.701L1078.32 590.781L969.165 401.685Z" fill="#63328B"/>
<path id="Polygon 52_5" d="M1078.56 200.419L1187.84 389.765H969.166L1078.56 200.419Z" fill="#63328B"/>
<path id="Polygon 55_5" d="M1090.14 603.71L1308.43 603.726L1199.3 792.806L1090.14 603.71Z" fill="#63328B"/>
<path id="Polygon 56_5" d="M1199.54 402.444L1308.82 591.79H1090.14L1199.54 402.444Z" fill="#63328B"/>
</g>
<g id="tr&#195;&#179;jkaty_6">
<path id="Polygon 49_6" d="M1088.91 1811.14L1307.2 1811.16L1198.07 2000.24L1088.91 1811.14Z" fill="#63328B"/>
<path id="Polygon 50_6" d="M1198.3 1609.88L1307.58 1799.22H1088.91L1198.3 1609.88Z" fill="#63328B"/>
<path id="Polygon 51_6" d="M967.374 2012.53L1185.66 2012.55L1076.53 2201.63L967.374 2012.53Z" fill="#63328B"/>
<path id="Polygon 52_6" d="M1076.77 1811.27L1186.05 2000.61H967.375L1076.77 1811.27Z" fill="#63328B"/>
<path id="Polygon 55_6" d="M1088.35 2214.56L1306.64 2214.57L1197.51 2403.65L1088.35 2214.56Z" fill="#63328B"/>
<path id="Polygon 56_6" d="M1197.75 2013.29L1307.03 2202.64H1088.35L1197.75 2013.29Z" fill="#63328B"/>
</g>
<g id="tr&#195;&#179;jkaty_7">
<path id="Polygon 49_7" d="M846.363 2213.41L1064.65 2213.42L955.519 2402.5L846.363 2213.41Z" fill="#63328B"/>
<path id="Polygon 50_7" d="M955.755 2012.14L1065.04 2201.49H846.362L955.755 2012.14Z" fill="#63328B"/>
<path id="Polygon 51_7" d="M724.826 2414.79L943.11 2414.81L833.982 2603.89L724.826 2414.79Z" fill="#63328B"/>
<path id="Polygon 52_7" d="M834.219 2213.53L943.5 2402.87H724.826L834.219 2213.53Z" fill="#63328B"/>
<path id="Polygon 53_4" d="M966.78 2414.79L1185.06 2414.81L1075.94 2603.89L966.78 2414.79Z" fill="#63328B"/>
<path id="Polygon 54_4" d="M1076.17 2213.53L1185.45 2402.87H966.779L1076.17 2213.53Z" fill="#63328B"/>
<path id="Polygon 55_7" d="M845.803 2616.82L1064.09 2616.83L954.959 2805.91L845.803 2616.82Z" fill="#63328B"/>
<path id="Polygon 56_7" d="M955.197 2415.55L1064.48 2604.9H845.804L955.197 2415.55Z" fill="#63328B"/>
</g>
<g id="tr&#195;&#179;jkaty_8">
<path id="Polygon 49_8" d="M604.409 1811.74L822.693 1811.75L713.565 2000.83L604.409 1811.74Z" fill="#63328B"/>
<path id="Polygon 50_8" d="M713.8 1610.47L823.081 1799.82H604.407L713.8 1610.47Z" fill="#63328B"/>
<path id="Polygon 51_8" d="M482.871 2013.12L701.156 2013.14L592.028 2202.22L482.871 2013.12Z" fill="#63328B"/>
<path id="Polygon 52_8" d="M592.265 1811.86L701.546 2001.2H482.872L592.265 1811.86Z" fill="#63328B"/>
<path id="Polygon 53_5" d="M724.826 2013.12L943.11 2013.14L833.982 2202.22L724.826 2013.12Z" fill="#63328B"/>
<path id="Polygon 54_5" d="M834.218 1811.86L943.499 2001.2H724.825L834.218 1811.86Z" fill="#63328B"/>
<path id="Polygon 55_8" d="M603.849 2214.55L822.133 2214.57L713.005 2403.65L603.849 2214.55Z" fill="#63328B"/>
<path id="Polygon 56_8" d="M713.242 2013.88L822.523 2203.23H603.85L713.242 2013.88Z" fill="#63328B"/>
</g>
<g id="tr&#195;&#179;jkaty_9">
<path id="Polygon 49_9" d="M362.451 1409.47L580.735 1409.49L471.607 1598.57L362.451 1409.47Z" fill="#63328B"/>
<path id="Polygon 50_9" d="M471.843 1208.21L581.124 1397.55H362.45L471.843 1208.21Z" fill="#63328B"/>
<path id="Polygon 51_9" d="M240.913 1610.86L459.198 1610.88L350.07 1799.96L240.913 1610.86Z" fill="#63328B"/>
<path id="Polygon 52_9" d="M350.307 1409.6L459.588 1598.94H240.914L350.307 1409.6Z" fill="#63328B"/>
<path id="Polygon 53_6" d="M482.867 1610.86L701.152 1610.88L592.024 1799.96L482.867 1610.86Z" fill="#63328B"/>
<path id="Polygon 54_6" d="M592.26 1409.6L701.541 1598.94H482.867L592.26 1409.6Z" fill="#63328B"/>
<path id="Polygon 55_9" d="M361.891 1812.29L580.175 1812.31L471.047 2001.39L361.891 1812.29Z" fill="#63328B"/>
<path id="Polygon 56_9" d="M471.284 1611.62L580.565 1800.97H361.892L471.284 1611.62Z" fill="#63328B"/>
</g>
<g id="tr&#195;&#179;jkaty_10">
<path id="Polygon 49_10" d="M603.813 2616.27L822.097 2616.28L712.969 2805.36L603.813 2616.27Z" fill="#63328B"/>
<path id="Polygon 50_10" d="M713.205 2415L822.486 2604.35H603.813L713.205 2415Z" fill="#63328B"/>
<path id="Polygon 51_10" d="M482.276 2817.65L700.56 2817.67L591.432 3006.75L482.276 2817.65Z" fill="#63328B"/>
<path id="Polygon 52_10" d="M591.669 2616.39L700.95 2805.73H482.276L591.669 2616.39Z" fill="#63328B"/>
<path id="Polygon 53_7" d="M724.229 2817.65L942.513 2817.67L833.385 3006.75L724.229 2817.65Z" fill="#63328B"/>
<path id="Polygon 54_7" d="M833.622 2616.39L942.903 2805.73H724.23L833.622 2616.39Z" fill="#63328B"/>
<path id="Polygon 55_10" d="M603.253 3019.68L821.538 3019.69L712.409 3208.77L603.253 3019.68Z" fill="#63328B"/>
<path id="Polygon 56_10" d="M712.647 2818.41L821.928 3007.76H603.254L712.647 2818.41Z" fill="#63328B"/>
</g>
<g id="tr&#195;&#179;jkaty_11">
<path id="Polygon 49_11" d="M362.451 2215.19L580.735 2215.21L471.607 2404.29L362.451 2215.19Z" fill="#63328B"/>
<path id="Polygon 50_11" d="M471.843 2013.93L581.124 2203.27H362.45L471.843 2013.93Z" fill="#63328B"/>
<path id="Polygon 51_11" d="M240.913 2416.58L459.198 2416.59L350.07 2605.67L240.913 2416.58Z" fill="#63328B"/>
<path id="Polygon 52_11" d="M350.307 2215.31L459.588 2404.66H240.914L350.307 2215.31Z" fill="#63328B"/>
<path id="Polygon 53_8" d="M482.867 2416.58L701.152 2416.59L592.024 2605.67L482.867 2416.58Z" fill="#63328B"/>
<path id="Polygon 54_8" d="M592.26 2215.31L701.541 2404.66H482.867L592.26 2215.31Z" fill="#63328B"/>
<path id="Polygon 55_11" d="M361.891 2618.01L580.175 2618.02L471.047 2807.1L361.891 2618.01Z" fill="#63328B"/>
<path id="Polygon 56_11" d="M471.284 2417.34L580.565 2606.69H361.892L471.284 2417.34Z" fill="#63328B"/>
</g>
<g id="tr&#195;&#179;jkaty_12">
<path id="Polygon 49_12" d="M361.262 3019.13L579.546 3019.14L470.418 3208.22L361.262 3019.13Z" fill="#63328B"/>
<path id="Polygon 50_12" d="M470.655 2817.86L579.935 3007.21H361.262L470.655 2817.86Z" fill="#63328B"/>
<path id="Polygon 51_12" d="M239.725 3220.51L458.009 3220.53L348.881 3409.61L239.725 3220.51Z" fill="#63328B"/>
<path id="Polygon 52_12" d="M349.118 3019.25L458.399 3208.59H239.726L349.118 3019.25Z" fill="#63328B"/>
<path id="Polygon 53_9" d="M481.679 3220.51L699.963 3220.53L590.835 3409.61L481.679 3220.51Z" fill="#63328B"/>
<path id="Polygon 54_9" d="M591.072 3019.25L700.352 3208.59H481.679L591.072 3019.25Z" fill="#63328B"/>
<path id="Polygon 55_12" d="M360.702 3422.54L578.987 3422.55L469.859 3611.63L360.702 3422.54Z" fill="#63328B"/>
<path id="Polygon 56_12" d="M470.096 3221.27L579.377 3410.62H360.703L470.096 3221.27Z" fill="#63328B"/>
</g>
<g id="tr&#195;&#179;jkaty_13">
<path id="Polygon 49_13" d="M118.116 3423.18L336.4 3423.19L227.272 3612.27L118.116 3423.18Z" fill="#63328B"/>
<path id="Polygon 50_13" d="M227.508 3221.91L336.789 3411.26H118.115L227.508 3221.91Z" fill="#63328B"/>
<path id="Polygon 51_13" d="M-3.42156 3624.56L214.863 3624.58L105.735 3813.66L-3.42156 3624.56Z" fill="#63328B"/>
<path id="Polygon 52_13" d="M105.972 3423.3L215.253 3612.64H-3.42081L105.972 3423.3Z" fill="#63328B"/>
<path id="Polygon 53_10" d="M238.533 3624.56L456.817 3624.58L347.689 3813.66L238.533 3624.56Z" fill="#63328B"/>
<path id="Polygon 54_10" d="M347.925 3423.3L457.206 3612.64H238.532L347.925 3423.3Z" fill="#63328B"/>
<path id="Polygon 55_13" d="M117.556 3826.59L335.84 3826.6L226.712 4015.68L117.556 3826.59Z" fill="#63328B"/>
<path id="Polygon 56_13" d="M226.95 3625.32L336.23 3814.67H117.557L226.95 3625.32Z" fill="#63328B"/>
</g>
<g id="tr&#195;&#179;jkaty_14">
<path id="Polygon 49_14" d="M-124.436 3826.04L93.8482 3826.05L-15.28 4015.13L-124.436 3826.04Z" fill="#63328B"/>
<path id="Polygon 50_14" d="M-15.0427 3624.77L94.2381 3814.12H-124.435L-15.0427 3624.77Z" fill="#63328B"/>
<path id="Polygon 53_11" d="M-4.01727 4027.42L214.267 4027.44L105.139 4216.52L-4.01727 4027.42Z" fill="#63328B"/>
<path id="Polygon 54_11" d="M105.376 3826.16L214.657 4015.5H-4.01651L105.376 3826.16Z" fill="#63328B"/>
<path id="Polygon 55_14" d="M-124.995 4229.45L93.2896 4229.46L-15.8386 4418.55L-124.995 4229.45Z" fill="#63328B"/>
<path id="Polygon 56_14" d="M-15.6013 4028.18L93.6795 4217.53H-124.994L-15.6013 4028.18Z" fill="#63328B"/>
</g>
<g id="tr&#195;&#179;jkaty_15">
<path id="Polygon 49_15" d="M-122.648 3019.72L95.6363 3019.74L-13.4919 3208.82L-122.648 3019.72Z" fill="#63328B"/>
<path id="Polygon 50_15" d="M-13.2546 2818.46L96.0262 3007.8H-122.647L-13.2546 2818.46Z" fill="#63328B"/>
<path id="Polygon 53_12" d="M-2.22918 3221.11L216.055 3221.13L106.927 3410.21L-2.22918 3221.11Z" fill="#63328B"/>
<path id="Polygon 54_12" d="M107.164 3019.84L216.445 3209.19H-2.22843L107.164 3019.84Z" fill="#63328B"/>
<path id="Polygon 55_15" d="M-123.207 3423.13L95.0777 3423.15L-14.0505 3612.23L-123.207 3423.13Z" fill="#63328B"/>
<path id="Polygon 56_15" d="M-13.8132 3221.87L95.4676 3411.21H-123.206L-13.8132 3221.87Z" fill="#63328B"/>
</g>
<g id="tr&#195;&#179;jkaty_16">
<path id="Polygon 49_16" d="M-122.053 2215.79L96.231 2215.81L-12.8972 2404.89L-122.053 2215.79Z" fill="#63328B"/>
<path id="Polygon 50_16" d="M-12.6599 2014.53L96.621 2203.87H-122.053L-12.6599 2014.53Z" fill="#63328B"/>
<path id="Polygon 53_13" d="M-1.63445 2417.18L216.65 2417.19L107.522 2606.27L-1.63445 2417.18Z" fill="#63328B"/>
<path id="Polygon 54_13" d="M107.759 2215.91L217.04 2405.26H-1.6337L107.759 2215.91Z" fill="#63328B"/>
<path id="Polygon 55_16" d="M-122.612 2619.2L95.6724 2619.22L-13.4558 2808.3L-122.612 2619.2Z" fill="#63328B"/>
<path id="Polygon 56_16" d="M-13.2185 2417.94L96.0624 2607.28H-122.611L-13.2185 2417.94Z" fill="#63328B"/>
</g>
<g id="tr&#195;&#179;jkaty_17">
<path id="Polygon 49_17" d="M119.903 2618.05L338.187 2618.07L229.059 2807.15L119.903 2618.05Z" fill="#63328B"/>
<path id="Polygon 50_17" d="M229.295 2416.79L338.576 2606.13H119.902L229.295 2416.79Z" fill="#63328B"/>
<path id="Polygon 51_14" d="M-1.63445 2819.44L216.65 2819.45L107.522 3008.53L-1.63445 2819.44Z" fill="#63328B"/>
<path id="Polygon 52_14" d="M107.759 2618.17L217.04 2807.52H-1.6337L107.759 2618.17Z" fill="#63328B"/>
<path id="Polygon 53_14" d="M240.32 2819.44L458.604 2819.45L349.476 3008.53L240.32 2819.44Z" fill="#63328B"/>
<path id="Polygon 54_14" d="M349.712 2618.17L458.993 2807.52H240.319L349.712 2618.17Z" fill="#63328B"/>
<path id="Polygon 55_17" d="M119.343 3020.87L337.627 3020.88L228.499 3209.96L119.343 3020.87Z" fill="#63328B"/>
<path id="Polygon 56_17" d="M228.737 2820.2L338.017 3009.54H119.344L228.737 2820.2Z" fill="#63328B"/>
</g>
<g id="tr&#195;&#179;jkaty_18">
<path id="Polygon 49_18" d="M120.5 1812.93L338.785 1812.95L229.656 2002.03L120.5 1812.93Z" fill="#63328B"/>
<path id="Polygon 50_18" d="M229.892 1611.67L339.173 1801.01H120.499L229.892 1611.67Z" fill="#63328B"/>
<path id="Polygon 51_15" d="M-1.0368 2014.32L217.248 2014.33L108.119 2203.41L-1.0368 2014.32Z" fill="#63328B"/>
<path id="Polygon 52_15" d="M108.357 1813.05L217.638 2002.4H-1.03605L108.357 1813.05Z" fill="#63328B"/>
<path id="Polygon 53_15" d="M240.917 2014.32L459.202 2014.33L350.073 2203.41L240.917 2014.32Z" fill="#63328B"/>
<path id="Polygon 54_15" d="M350.31 1813.05L459.591 2002.4H240.917L350.31 1813.05Z" fill="#63328B"/>
<path id="Polygon 55_18" d="M119.941 2215.75L338.225 2215.76L229.097 2404.84L119.941 2215.75Z" fill="#63328B"/>
<path id="Polygon 56_18" d="M229.334 2015.08L338.615 2204.42H119.941L229.334 2015.08Z" fill="#63328B"/>
</g>
</g>
</svg>
