<svg width="990" height="7523" viewBox="0 0 990 7523" fill="none" xmlns="http://www.w3.org/2000/svg">
<path d="M700.685 490.167L877.78 490.18L789.244 643.582L700.685 490.167Z" fill="#63328B"/>
<path d="M789.435 326.877L878.095 480.494H700.684L789.435 326.877Z" fill="#63328B"/>
<path d="M602.082 653.55L779.177 653.563L690.641 806.964L602.082 653.55Z" fill="#63328B"/>
<path d="M690.833 490.264L779.493 643.88H602.083L690.833 490.264Z" fill="#63328B"/>
<path d="M798.38 653.55L975.475 653.563L886.939 806.964L798.38 653.55Z" fill="#63328B"/>
<path d="M887.135 490.264L975.795 643.88H798.384L887.135 490.264Z" fill="#63328B"/>
<path d="M700.233 817.451L877.327 817.464L788.791 970.866L700.233 817.451Z" fill="#63328B"/>
<path d="M788.983 654.166L877.643 807.783H700.232L788.983 654.166Z" fill="#63328B"/>
<path d="M503.419 816.488L680.514 816.501L591.978 969.903L503.419 816.488Z" fill="#63328B"/>
<path d="M592.169 653.2L680.829 806.817H503.419L592.169 653.2Z" fill="#63328B"/>
<path d="M404.817 979.873L581.911 979.886L493.375 1133.29L404.817 979.873Z" fill="#63328B"/>
<path d="M493.568 816.586L582.228 970.203H404.817L493.568 816.586Z" fill="#63328B"/>
<path d="M601.114 979.873L778.209 979.886L689.673 1133.29L601.114 979.873Z" fill="#63328B"/>
<path d="M689.87 816.586L778.53 970.203H601.12L689.87 816.586Z" fill="#63328B"/>
<path d="M502.967 1143.78L680.062 1143.79L591.526 1297.19L502.967 1143.78Z" fill="#63328B"/>
<path d="M591.717 980.49L680.377 1134.11H502.966L591.717 980.49Z" fill="#63328B"/>
<path d="M700.201 1143.36L877.296 1143.38L788.76 1296.78L700.201 1143.36Z" fill="#63328B"/>
<path d="M788.952 980.075L877.611 1133.69H700.201L788.952 980.075Z" fill="#63328B"/>
<path d="M601.599 1306.75L778.694 1306.76L690.158 1460.16L601.599 1306.75Z" fill="#63328B"/>
<path d="M690.35 1143.46L779.01 1297.08H601.599L690.35 1143.46Z" fill="#63328B"/>
<path d="M797.897 1306.75L974.992 1306.76L886.455 1460.16L797.897 1306.75Z" fill="#63328B"/>
<path d="M886.652 1143.46L975.312 1297.08H797.901L886.652 1143.46Z" fill="#63328B"/>
<path d="M699.749 1470.65L876.844 1470.66L788.308 1624.06L699.749 1470.65Z" fill="#63328B"/>
<path d="M788.499 1307.36L877.159 1460.98H699.749L788.499 1307.36Z" fill="#63328B"/>
<path d="M897.464 816.971L1074.56 816.984L986.023 970.385L897.464 816.971Z" fill="#63328B"/>
<path d="M986.214 653.683L1074.87 807.299H897.463L986.214 653.683Z" fill="#63328B"/>
<path d="M798.861 980.353L975.956 980.366L887.42 1133.77L798.861 980.353Z" fill="#63328B"/>
<path d="M887.613 817.068L976.273 970.685H798.862L887.613 817.068Z" fill="#63328B"/>
<path d="M897.012 1144.26L1074.11 1144.27L985.571 1297.67L897.012 1144.26Z" fill="#63328B"/>
<path d="M985.762 980.973L1074.42 1134.59H897.011L985.762 980.973Z" fill="#63328B"/>
<path d="M897.95 163.289L1075.05 163.302L986.509 316.704L897.95 163.289Z" fill="#63328B"/>
<path d="M986.701 0L1075.36 153.617L897.95 153.617L986.701 0Z" fill="#63328B"/>
<path d="M799.348 326.672L976.443 326.685L887.907 480.086L799.348 326.672Z" fill="#63328B"/>
<path d="M888.099 163.386L976.759 317.003H799.348L888.099 163.386Z" fill="#63328B"/>
<path d="M897.498 490.576L1074.59 490.589L986.057 643.991L897.498 490.576Z" fill="#63328B"/>
<path d="M986.249 327.289L1074.91 480.906H897.499L986.249 327.289Z" fill="#63328B"/>
<path d="M896.496 1470.17L1073.59 1470.19L985.055 1623.59L896.496 1470.17Z" fill="#63328B"/>
<path d="M985.246 1306.89L1073.91 1460.5H896.496L985.246 1306.89Z" fill="#63328B"/>
<path d="M797.894 1633.56L974.989 1633.57L886.452 1786.97L797.894 1633.56Z" fill="#63328B"/>
<path d="M886.645 1470.27L975.305 1623.89H797.894L886.645 1470.27Z" fill="#63328B"/>
<path d="M896.044 1797.46L1073.14 1797.47L984.603 1950.88L896.044 1797.46Z" fill="#63328B"/>
<path d="M984.794 1634.17L1073.45 1787.79H896.044L984.794 1634.17Z" fill="#63328B"/>
<path d="M699.716 1796.53L876.811 1796.55L788.275 1949.95L699.716 1796.53Z" fill="#63328B"/>
<path d="M788.466 1633.24L877.126 1786.86H699.715L788.466 1633.24Z" fill="#63328B"/>
<path d="M601.113 1959.92L778.208 1959.93L689.672 2113.33L601.113 1959.92Z" fill="#63328B"/>
<path d="M689.865 1796.63L778.525 1950.25H601.114L689.865 1796.63Z" fill="#63328B"/>
<path d="M797.411 1959.92L974.506 1959.93L885.97 2113.33L797.411 1959.92Z" fill="#63328B"/>
<path d="M886.165 1796.63L974.825 1950.25H797.415L886.165 1796.63Z" fill="#63328B"/>
<path d="M699.264 2123.82L876.359 2123.83L787.823 2277.23L699.264 2123.82Z" fill="#63328B"/>
<path d="M788.012 1960.53L876.672 2114.15H699.261L788.012 1960.53Z" fill="#63328B"/>
<path d="M503.419 1470.66L680.514 1470.67L591.978 1624.07L503.419 1470.66Z" fill="#63328B"/>
<path d="M592.169 1307.37L680.829 1460.98H503.419L592.169 1307.37Z" fill="#63328B"/>
<path d="M404.817 1634.04L581.911 1634.05L493.375 1787.45L404.817 1634.04Z" fill="#63328B"/>
<path d="M493.568 1470.75L582.228 1624.37H404.817L493.568 1470.75Z" fill="#63328B"/>
<path d="M601.114 1634.04L778.209 1634.05L689.673 1787.45L601.114 1634.04Z" fill="#63328B"/>
<path d="M689.87 1470.75L778.53 1624.37H601.12L689.87 1470.75Z" fill="#63328B"/>
<path d="M502.967 1797.46L680.062 1797.47L591.526 1950.88L502.967 1797.46Z" fill="#63328B"/>
<path d="M591.717 1634.66L680.377 1788.27H502.966L591.717 1634.66Z" fill="#63328B"/>
<path d="M307.12 1144.3L484.215 1144.31L395.679 1297.71L307.12 1144.3Z" fill="#63328B"/>
<path d="M395.87 981.012L484.53 1134.63H307.12L395.87 981.012Z" fill="#63328B"/>
<path d="M208.518 1307.68L385.613 1307.7L297.077 1461.1L208.518 1307.68Z" fill="#63328B"/>
<path d="M297.269 1144.4L385.929 1298.02H208.518L297.269 1144.4Z" fill="#63328B"/>
<path d="M404.816 1307.68L581.91 1307.7L493.374 1461.1L404.816 1307.68Z" fill="#63328B"/>
<path d="M493.571 1144.4L582.231 1298.02H404.82L493.571 1144.4Z" fill="#63328B"/>
<path d="M306.668 1471.1L483.763 1471.12L395.227 1624.52L306.668 1471.1Z" fill="#63328B"/>
<path d="M395.418 1308.3L484.078 1461.92H306.668L395.418 1308.3Z" fill="#63328B"/>
<path d="M502.939 2123.37L680.034 2123.38L591.497 2276.78L502.939 2123.37Z" fill="#63328B"/>
<path d="M591.689 1960.08L680.349 2113.7H502.938L591.689 1960.08Z" fill="#63328B"/>
<path d="M404.336 2286.75L581.431 2286.77L492.895 2440.17L404.336 2286.75Z" fill="#63328B"/>
<path d="M493.087 2123.47L581.747 2277.08H404.337L493.087 2123.47Z" fill="#63328B"/>
<path d="M600.634 2286.75L777.729 2286.77L689.193 2440.17L600.634 2286.75Z" fill="#63328B"/>
<path d="M689.389 2123.47L778.049 2277.08H600.638L689.389 2123.47Z" fill="#63328B"/>
<path d="M502.486 2450.66L679.581 2450.67L591.045 2604.07L502.486 2450.66Z" fill="#63328B"/>
<path d="M591.237 2287.37L679.897 2440.99H502.486L591.237 2287.37Z" fill="#63328B"/>
<path d="M307.12 1797.98L484.215 1797.99L395.679 1951.39L307.12 1797.98Z" fill="#63328B"/>
<path d="M395.87 1634.69L484.53 1788.31H307.12L395.87 1634.69Z" fill="#63328B"/>
<path d="M208.518 1961.36L385.613 1961.38L297.077 2114.78L208.518 1961.36Z" fill="#63328B"/>
<path d="M297.269 1798.08L385.929 1951.69H208.518L297.269 1798.08Z" fill="#63328B"/>
<path d="M404.816 1961.36L581.91 1961.38L493.374 2114.78L404.816 1961.36Z" fill="#63328B"/>
<path d="M493.571 1798.08L582.231 1951.69H404.82L493.571 1798.08Z" fill="#63328B"/>
<path d="M306.668 2124.78L483.763 2124.8L395.227 2278.2L306.668 2124.78Z" fill="#63328B"/>
<path d="M395.418 1961.98L484.078 2115.6H306.668L395.418 1961.98Z" fill="#63328B"/>
<path d="M302.154 2450.22L479.249 2450.23L390.713 2603.63L302.154 2450.22Z" fill="#63328B"/>
<path d="M394.905 2286.93L483.565 2440.54H306.154L394.905 2286.93Z" fill="#63328B"/>
<path d="M403.849 2613.6L580.944 2613.61L492.408 2767.01L403.849 2613.6Z" fill="#63328B"/>
<path d="M492.605 2450.31L581.265 2603.93H403.854L492.605 2450.31Z" fill="#63328B"/>
<path d="M-85.9569 1798.46L91.138 1798.48L2.60191 1951.88L-85.9569 1798.46Z" fill="#63328B"/>
<path d="M2.79139 1635.18L91.4513 1788.79H-85.9594L2.79139 1635.18Z" fill="#63328B"/>
<path d="M12.7374 1960.85L189.832 1960.86L101.296 2114.26L12.7374 1960.85Z" fill="#63328B"/>
<path d="M100.489 1798.56L189.149 1952.18H11.7379L100.489 1798.56Z" fill="#63328B"/>
<path d="M110.339 2124.82L287.434 2124.84L198.898 2278.24L110.339 2124.82Z" fill="#63328B"/>
<path d="M199.089 1961.54L287.749 2115.15H110.338L199.089 1961.54Z" fill="#63328B"/>
<path d="M208.034 2288.21L385.129 2288.22L296.593 2441.62L208.034 2288.21Z" fill="#63328B"/>
<path d="M296.79 2124.92L385.45 2278.54H208.04L296.79 2124.92Z" fill="#63328B"/>
<path d="M110.822 1471.62L287.917 1471.63L199.381 1625.04L110.822 1471.62Z" fill="#63328B"/>
<path d="M199.573 1308.33L288.233 1461.95H110.822L199.573 1308.33Z" fill="#63328B"/>
<path d="M12.2199 1635L189.315 1635.02L100.779 1788.42L12.2199 1635Z" fill="#63328B"/>
<path d="M100.971 1471.72L189.631 1625.34H12.2203L100.971 1471.72Z" fill="#63328B"/>
<path d="M208.518 1635L385.613 1635.02L297.077 1788.42L208.518 1635Z" fill="#63328B"/>
<path d="M297.274 1471.72L385.934 1625.34H208.523L297.274 1471.72Z" fill="#63328B"/>
<path d="M110.37 1798.42L287.465 1798.44L198.929 1951.84L110.37 1798.42Z" fill="#63328B"/>
<path d="M199.12 1635.62L287.78 1789.24H110.37L199.12 1635.62Z" fill="#63328B"/>
<path d="M500.668 4752.39L677.428 4752.41L589.059 4904.1L500.668 4752.39Z" fill="#63328B"/>
<path d="M589.251 4590.93L677.743 4742.83H500.668L589.251 4590.93Z" fill="#63328B"/>
<path d="M402.251 4913.96L579.011 4913.97L490.642 5065.67L402.251 4913.96Z" fill="#63328B"/>
<path d="M490.834 4752.49L579.326 4904.4H402.251L490.834 4752.49Z" fill="#63328B"/>
<path d="M598.178 4913.96L774.938 4913.97L686.569 5065.67L598.178 4913.96Z" fill="#63328B"/>
<path d="M686.761 4752.49L775.253 4904.4H598.178L686.761 4752.49Z" fill="#63328B"/>
<path d="M500.215 5076.04L676.975 5076.05L588.606 5227.75L500.215 5076.04Z" fill="#63328B"/>
<path d="M588.798 4914.57L677.29 5066.48H500.215L588.798 4914.57Z" fill="#63328B"/>
<path d="M697.075 5075.63L873.835 5075.64L785.467 5227.33L697.075 5075.63Z" fill="#63328B"/>
<path d="M785.658 4914.16L874.15 5066.07H697.075L785.658 4914.16Z" fill="#63328B"/>
<path d="M598.658 5237.19L775.418 5237.21L687.05 5388.9L598.658 5237.19Z" fill="#63328B"/>
<path d="M687.241 5075.73L775.733 5227.63H598.658L687.241 5075.73Z" fill="#63328B"/>
<path d="M794.584 5237.19L971.344 5237.21L882.975 5388.9L794.584 5237.19Z" fill="#63328B"/>
<path d="M883.168 5075.73L971.66 5227.63H794.585L883.168 5075.73Z" fill="#63328B"/>
<path d="M696.622 5399.27L873.382 5399.29L785.013 5550.98L696.622 5399.27Z" fill="#63328B"/>
<path d="M785.205 5237.8L873.697 5389.71H696.622L785.205 5237.8Z" fill="#63328B"/>
<path d="M893.003 5398.8L1069.76 5398.81L981.394 5550.5L893.003 5398.8Z" fill="#63328B"/>
<path d="M981.585 5237.33L1070.08 5389.24H893.002L981.585 5237.33Z" fill="#63328B"/>
<path d="M794.586 5560.36L971.346 5560.38L882.977 5712.07L794.586 5560.36Z" fill="#63328B"/>
<path d="M883.169 5398.9L971.661 5550.8H794.586L883.169 5398.9Z" fill="#63328B"/>
<path d="M892.55 5722.44L1069.31 5722.46L980.941 5874.15L892.55 5722.44Z" fill="#63328B"/>
<path d="M981.133 5560.97L1069.62 5712.88H892.55L981.133 5560.97Z" fill="#63328B"/>
<path d="M696.595 5721.52L873.355 5721.53L784.986 5873.23L696.595 5721.52Z" fill="#63328B"/>
<path d="M785.178 5560.05L873.67 5711.96H696.595L785.178 5560.05Z" fill="#63328B"/>
<path d="M598.178 5883.09L774.938 5883.1L686.569 6034.79L598.178 5883.09Z" fill="#63328B"/>
<path d="M686.761 5721.62L775.253 5873.53H598.178L686.761 5721.62Z" fill="#63328B"/>
<path d="M794.105 5883.09L970.864 5883.1L882.496 6034.79L794.105 5883.09Z" fill="#63328B"/>
<path d="M882.687 5721.62L971.18 5873.53H794.105L882.687 5721.62Z" fill="#63328B"/>
<path d="M696.142 6045.17L872.901 6045.18L784.533 6196.87L696.142 6045.17Z" fill="#63328B"/>
<path d="M784.725 5883.7L873.217 6035.6H696.142L784.725 5883.7Z" fill="#63328B"/>
<path d="M500.668 5399.27L677.428 5399.29L589.059 5550.98L500.668 5399.27Z" fill="#63328B"/>
<path d="M589.25 5237.81L677.742 5389.71H500.667L589.25 5237.81Z" fill="#63328B"/>
<path d="M402.251 5560.84L579.011 5560.85L490.642 5712.55L402.251 5560.84Z" fill="#63328B"/>
<path d="M490.834 5399.37L579.326 5551.28H402.251L490.834 5399.37Z" fill="#63328B"/>
<path d="M598.178 5560.84L774.938 5560.85L686.569 5712.55L598.178 5560.84Z" fill="#63328B"/>
<path d="M686.761 5399.37L775.253 5551.28H598.178L686.761 5399.37Z" fill="#63328B"/>
<path d="M500.215 5722.44L676.975 5722.45L588.606 5874.15L500.215 5722.44Z" fill="#63328B"/>
<path d="M588.798 5561.45L677.29 5713.36H500.215L588.798 5561.45Z" fill="#63328B"/>
<path d="M304.737 5076.55L481.497 5076.56L393.129 5228.26L304.737 5076.55Z" fill="#63328B"/>
<path d="M393.32 4915.08L481.812 5066.99H304.737L393.32 4915.08Z" fill="#63328B"/>
<path d="M206.32 5238.12L383.08 5238.13L294.712 5389.82L206.32 5238.12Z" fill="#63328B"/>
<path d="M294.903 5076.65L383.395 5228.56H206.32L294.903 5076.65Z" fill="#63328B"/>
<path d="M402.247 5238.12L579.007 5238.13L490.638 5389.82L402.247 5238.12Z" fill="#63328B"/>
<path d="M490.83 5076.65L579.322 5228.56H402.247L490.83 5076.65Z" fill="#63328B"/>
<path d="M304.284 5399.72L481.044 5399.73L392.675 5551.42L304.284 5399.72Z" fill="#63328B"/>
<path d="M392.867 5238.73L481.359 5390.63H304.284L392.867 5238.73Z" fill="#63328B"/>
<path d="M500.184 6044.72L676.943 6044.74L588.575 6196.43L500.184 6044.72Z" fill="#63328B"/>
<path d="M588.767 5883.25L677.259 6035.16H500.184L588.767 5883.25Z" fill="#63328B"/>
<path d="M401.767 6206.29L578.526 6206.3L490.158 6358L401.767 6206.29Z" fill="#63328B"/>
<path d="M490.35 6044.82L578.842 6196.73H401.767L490.35 6044.82Z" fill="#63328B"/>
<path d="M597.692 6206.29L774.452 6206.3L686.084 6358L597.692 6206.29Z" fill="#63328B"/>
<path d="M686.276 6044.82L774.768 6196.73H597.693L686.276 6044.82Z" fill="#63328B"/>
<path d="M499.731 6368.37L676.49 6368.38L588.122 6520.07L499.731 6368.37Z" fill="#63328B"/>
<path d="M588.313 6206.9L676.806 6358.81H499.731L588.313 6206.9Z" fill="#63328B"/>
<path d="M304.737 5722.95L481.497 5722.97L393.129 5874.66L304.737 5722.95Z" fill="#63328B"/>
<path d="M393.32 5561.49L481.812 5713.39H304.737L393.32 5561.49Z" fill="#63328B"/>
<path d="M206.32 5884.52L383.08 5884.53L294.712 6036.23L206.32 5884.52Z" fill="#63328B"/>
<path d="M294.903 5723.05L383.395 5874.96H206.32L294.903 5723.05Z" fill="#63328B"/>
<path d="M402.247 5884.52L579.007 5884.53L490.638 6036.23L402.247 5884.52Z" fill="#63328B"/>
<path d="M490.83 5723.05L579.322 5874.96H402.247L490.83 5723.05Z" fill="#63328B"/>
<path d="M304.284 6046.12L481.044 6046.13L392.675 6197.83L304.284 6046.12Z" fill="#63328B"/>
<path d="M392.867 5885.13L481.359 6037.04H304.284L392.867 5885.13Z" fill="#63328B"/>
<path d="M303.775 6367.93L480.534 6367.94L392.166 6519.63L303.775 6367.93Z" fill="#63328B"/>
<path d="M392.357 6206.46L480.85 6358.36H303.775L392.357 6206.46Z" fill="#63328B"/>
<path d="M205.358 6529.49L382.117 6529.51L293.749 6681.2L205.358 6529.49Z" fill="#63328B"/>
<path d="M293.94 6368.02L382.433 6519.93H205.358L293.94 6368.02Z" fill="#63328B"/>
<path d="M401.284 6529.49L578.044 6529.51L489.675 6681.2L401.284 6529.49Z" fill="#63328B"/>
<path d="M489.867 6368.02L578.359 6519.93H401.284L489.867 6368.02Z" fill="#63328B"/>
<path d="M303.321 6691.57L480.081 6691.58L391.713 6843.28L303.321 6691.57Z" fill="#63328B"/>
<path d="M391.904 6530.1L480.396 6682.01H303.321L391.904 6530.1Z" fill="#63328B"/>
<path d="M106.882 6692.08L283.642 6692.1L195.273 6843.79L106.882 6692.08Z" fill="#63328B"/>
<path d="M195.465 6530.61L283.957 6682.52H106.882L195.465 6530.61Z" fill="#63328B"/>
<path d="M8.46493 6853.65L185.225 6853.66L96.8562 7005.35L8.46493 6853.65Z" fill="#63328B"/>
<path d="M97.0478 6692.18L185.54 6844.09H8.46495L97.0478 6692.18Z" fill="#63328B"/>
<path d="M204.392 6853.65L381.151 6853.66L292.783 7005.35L204.392 6853.65Z" fill="#63328B"/>
<path d="M292.975 6692.18L381.467 6844.09H204.392L292.975 6692.18Z" fill="#63328B"/>
<path d="M106.429 7015.73L283.189 7015.74L194.82 7167.43L106.429 7015.73Z" fill="#63328B"/>
<path d="M195.012 6854.26L283.504 7006.16H106.429L195.012 6854.26Z" fill="#63328B"/>
<path d="M-89.5282 7015.28L87.2316 7015.3L-1.137 7166.99L-89.5282 7015.28Z" fill="#63328B"/>
<path d="M-0.94442 6853.82L87.5478 7005.72H-89.5272L-0.94442 6853.82Z" fill="#63328B"/>
<path d="M7.98349 7176.85L184.743 7176.86L96.3747 7328.56L7.98349 7176.85Z" fill="#63328B"/>
<path d="M96.5663 7015.38L185.058 7167.29H7.98351L96.5663 7015.38Z" fill="#63328B"/>
<path d="M-89.9804 7338.93L86.7794 7338.94L-1.58915 7490.64L-89.9804 7338.93Z" fill="#63328B"/>
<path d="M-1.39754 7177.46L87.0946 7329.37H-89.9804L-1.39754 7177.46Z" fill="#63328B"/>
<path d="M-88.081 6368.4L88.6788 6368.42L0.310265 6520.11L-88.081 6368.4Z" fill="#63328B"/>
<path d="M0.502846 6206.94L88.995 6358.84H-88.08L0.502846 6206.94Z" fill="#63328B"/>
<path d="M9.43075 6529.97L186.191 6529.98L97.822 6681.68L9.43075 6529.97Z" fill="#63328B"/>
<path d="M98.0136 6368.5L186.506 6520.41H9.43077L98.0136 6368.5Z" fill="#63328B"/>
<path d="M-88.5331 6692.05L88.2267 6692.06L-0.141883 6843.75L-88.5331 6692.05Z" fill="#63328B"/>
<path d="M0.0497208 6530.58L88.5419 6682.49H-88.5331L0.0497208 6530.58Z" fill="#63328B"/>
<path d="M-87.5985 5723.43L89.1613 5723.45L0.792687 5875.14L-87.5985 5723.43Z" fill="#63328B"/>
<path d="M0.985268 5561.97L89.4774 5713.87H-87.5975L0.985268 5561.97Z" fill="#63328B"/>
<path d="M9.91317 5885L186.673 5885.01L98.3044 6036.71L9.91317 5885Z" fill="#63328B"/>
<path d="M98.496 5723.53L186.988 5875.44H9.91319L98.496 5723.53Z" fill="#63328B"/>
<path d="M-88.0507 6047.08L88.7091 6047.09L0.340538 6198.79L-88.0507 6047.08Z" fill="#63328B"/>
<path d="M0.532143 5885.61L89.0243 6037.52H-88.0507L0.532143 5885.61Z" fill="#63328B"/>
<path d="M108.331 6046.16L285.091 6046.17L196.722 6197.86L108.331 6046.16Z" fill="#63328B"/>
<path d="M196.914 5884.69L285.406 6036.59H108.331L196.914 5884.69Z" fill="#63328B"/>
<path d="M9.91415 6207.72L186.674 6207.73L98.3054 6359.43L9.91415 6207.72Z" fill="#63328B"/>
<path d="M98.497 6046.25L186.989 6198.16H9.91417L98.497 6046.25Z" fill="#63328B"/>
<path d="M205.841 6207.72L382.601 6207.73L294.232 6359.43L205.841 6207.72Z" fill="#63328B"/>
<path d="M294.424 6046.25L382.916 6198.16H205.841L294.424 6046.25Z" fill="#63328B"/>
<path d="M107.878 6369.32L284.638 6369.34L196.269 6521.03L107.878 6369.32Z" fill="#63328B"/>
<path d="M196.461 6208.33L284.953 6360.24H107.878L196.461 6208.33Z" fill="#63328B"/>
<path d="M108.815 5400.23L285.574 5400.25L197.206 5551.94L108.815 5400.23Z" fill="#63328B"/>
<path d="M197.396 5238.76L285.889 5390.67H108.814L197.396 5238.76Z" fill="#63328B"/>
<path d="M10.3975 5561.8L187.157 5561.81L98.7888 5713.5L10.3975 5561.8Z" fill="#63328B"/>
<path d="M98.9804 5400.33L187.473 5552.24H10.3976L98.9804 5400.33Z" fill="#63328B"/>
<path d="M206.324 5561.8L383.084 5561.81L294.716 5713.5L206.324 5561.8Z" fill="#63328B"/>
<path d="M294.907 5400.33L383.399 5552.24H206.324L294.907 5400.33Z" fill="#63328B"/>
<path d="M108.361 5723.4L285.121 5723.41L196.753 5875.1L108.361 5723.4Z" fill="#63328B"/>
<path d="M196.944 5562.41L285.436 5714.32H108.361L196.944 5562.41Z" fill="#63328B"/>
<rect x="-730.139" y="2357.61" width="829.363" height="3369.06" transform="rotate(-30.8417 -730.139 2357.61)" fill="#32868B"/>
</svg>
