<svg width="2805" height="5670" viewBox="0 0 2805 5670" fill="none" xmlns="http://www.w3.org/2000/svg">
<g id="triangles-two">
<g id="triangles">
<g id="tr&#195;&#179;jkaty">
<path id="Polygon 49" d="M2758.41 89.4053L2894.75 97.9112L2819.23 211.764L2758.41 89.4053Z" fill="#63328B"/>
<path id="Polygon 50" d="M2834.57 -32.0478L2895.46 90.4715L2758.88 81.9605L2834.57 -32.0478Z" fill="#63328B"/>
<path id="Polygon 51" d="M2674.66 210.461L2811 218.967L2735.48 332.82L2674.66 210.461Z" fill="#63328B"/>
<path id="Polygon 52" d="M2750.82 89.0081L2811.71 211.527L2675.13 203.016L2750.82 89.0081Z" fill="#63328B"/>
<path id="Polygon 53" d="M2825.79 219.878L2962.13 228.384L2886.61 342.237L2825.79 219.878Z" fill="#63328B"/>
<path id="Polygon 55" d="M2742.36 341.356L2878.7 349.862L2803.18 463.715L2742.36 341.356Z" fill="#63328B"/>
<path id="Polygon 56" d="M2818.52 219.903L2879.41 342.422L2742.82 333.911L2818.52 219.903Z" fill="#63328B"/>
</g>
<g id="tr&#195;&#179;jkaty_2">
<path id="Polygon 49_2" d="M2590.89 331.17L2727.23 339.676L2651.71 453.529L2590.89 331.17Z" fill="#63328B"/>
<path id="Polygon 50_2" d="M2667.05 209.717L2727.94 332.236L2591.35 323.725L2667.05 209.717Z" fill="#63328B"/>
<path id="Polygon 51_2" d="M2507.14 452.226L2643.48 460.732L2567.96 574.585L2507.14 452.226Z" fill="#63328B"/>
<path id="Polygon 52_2" d="M2583.3 330.773L2644.19 453.292L2507.6 444.781L2583.3 330.773Z" fill="#63328B"/>
<path id="Polygon 53_2" d="M2658.26 461.643L2794.6 470.149L2719.08 584.002L2658.26 461.643Z" fill="#63328B"/>
<path id="Polygon 54" d="M2734.42 340.19L2795.31 462.709L2658.73 454.198L2734.42 340.19Z" fill="#63328B"/>
<path id="Polygon 55_2" d="M2574.84 583.12L2711.18 591.626L2635.66 705.479L2574.84 583.12Z" fill="#63328B"/>
<path id="Polygon 56_2" d="M2651 461.667L2711.89 584.187L2575.3 575.676L2651 461.667Z" fill="#63328B"/>
</g>
<g id="tr&#195;&#179;jkaty_3">
<path id="Polygon 49_3" d="M2726.7 592.264L2863.04 600.77L2787.52 714.623L2726.7 592.264Z" fill="#63328B"/>
<path id="Polygon 50_3" d="M2802.86 470.811L2863.75 593.33L2727.16 584.819L2802.86 470.811Z" fill="#63328B"/>
<path id="Polygon 51_3" d="M2642.95 713.32L2779.29 721.826L2703.77 835.679L2642.95 713.32Z" fill="#63328B"/>
<path id="Polygon 52_3" d="M2719.11 591.867L2780 714.386L2643.41 705.875L2719.11 591.867Z" fill="#63328B"/>
<path id="Polygon 53_3" d="M2794.07 722.737L2930.42 731.243L2854.89 845.096L2794.07 722.737Z" fill="#63328B"/>
<path id="Polygon 54_2" d="M2870.24 601.284L2931.12 723.803L2794.54 715.292L2870.24 601.284Z" fill="#63328B"/>
<path id="Polygon 55_3" d="M2710.65 844.214L2846.99 852.72L2771.47 966.573L2710.65 844.214Z" fill="#63328B"/>
<path id="Polygon 56_3" d="M2786.81 722.761L2847.7 845.281L2711.11 836.77L2786.81 722.761Z" fill="#63328B"/>
</g>
<g id="tr&#195;&#179;jkaty_4">
<path id="Polygon 51_4" d="M2810.48 471.502L2946.82 480.008L2871.3 593.861L2810.48 471.502Z" fill="#63328B"/>
</g>
<g id="tr&#195;&#179;jkaty_5">
<path id="Polygon 51_5" d="M2842.21 -31.7307L2978.55 -23.2248L2903.03 90.628L2842.21 -31.7307Z" fill="#63328B"/>
</g>
<g id="tr&#195;&#179;jkaty_6">
<path id="Polygon 51_6" d="M2778.4 974.339L2914.74 982.845L2839.22 1096.7L2778.4 974.339Z" fill="#63328B"/>
<path id="Polygon 52_4" d="M2854.56 852.886L2915.45 975.405L2778.86 966.894L2854.56 852.886Z" fill="#63328B"/>
</g>
<g id="tr&#195;&#179;jkaty_7">
<path id="Polygon 49_4" d="M2694.99 1095.1L2831.34 1103.6L2755.81 1217.46L2694.99 1095.1Z" fill="#63328B"/>
<path id="Polygon 50_4" d="M2771.16 973.645L2832.04 1096.16L2695.46 1087.65L2771.16 973.645Z" fill="#63328B"/>
<path id="Polygon 51_7" d="M2611.24 1216.15L2747.59 1224.66L2672.06 1338.51L2611.24 1216.15Z" fill="#63328B"/>
<path id="Polygon 52_5" d="M2687.41 1094.7L2748.29 1217.22L2611.71 1208.71L2687.41 1094.7Z" fill="#63328B"/>
<path id="Polygon 53_4" d="M2762.37 1225.57L2898.71 1234.08L2823.19 1347.93L2762.37 1225.57Z" fill="#63328B"/>
<path id="Polygon 54_3" d="M2838.53 1104.12L2899.42 1226.64L2762.83 1218.13L2838.53 1104.12Z" fill="#63328B"/>
<path id="Polygon 55_4" d="M2678.94 1347.05L2815.28 1355.55L2739.76 1469.41L2678.94 1347.05Z" fill="#63328B"/>
<path id="Polygon 56_4" d="M2755.11 1225.6L2815.99 1348.12L2679.41 1339.6L2755.11 1225.6Z" fill="#63328B"/>
</g>
<g id="tr&#195;&#179;jkaty_8">
<path id="Polygon 49_5" d="M2559.5 834.798L2695.85 843.304L2620.32 957.156L2559.5 834.798Z" fill="#63328B"/>
<path id="Polygon 50_5" d="M2635.67 713.345L2696.55 835.864L2559.97 827.353L2635.67 713.345Z" fill="#63328B"/>
<path id="Polygon 51_8" d="M2475.75 955.854L2612.1 964.36L2536.57 1078.21L2475.75 955.854Z" fill="#63328B"/>
<path id="Polygon 52_6" d="M2551.92 834.401L2612.8 956.92L2476.22 948.409L2551.92 834.401Z" fill="#63328B"/>
<path id="Polygon 53_5" d="M2626.88 965.271L2763.22 973.777L2687.7 1087.63L2626.88 965.271Z" fill="#63328B"/>
<path id="Polygon 54_4" d="M2703.04 843.818L2763.93 966.337L2627.34 957.826L2703.04 843.818Z" fill="#63328B"/>
<path id="Polygon 55_5" d="M2543.48 1086.38L2679.82 1094.88L2604.3 1208.73L2543.48 1086.38Z" fill="#63328B"/>
<path id="Polygon 56_5" d="M2619.61 965.295L2680.5 1087.81L2543.92 1079.3L2619.61 965.295Z" fill="#63328B"/>
</g>
<g id="tr&#195;&#179;jkaty_9">
<path id="Polygon 49_6" d="M2424.04 574.125L2560.38 582.631L2484.86 696.484L2424.04 574.125Z" fill="#63328B"/>
<path id="Polygon 50_6" d="M2500.2 452.672L2561.09 575.191L2424.5 566.68L2500.2 452.672Z" fill="#63328B"/>
<path id="Polygon 51_9" d="M2340.29 695.181L2476.63 703.687L2401.11 817.54L2340.29 695.181Z" fill="#63328B"/>
<path id="Polygon 52_7" d="M2416.45 573.728L2477.34 696.247L2340.75 687.736L2416.45 573.728Z" fill="#63328B"/>
<path id="Polygon 53_6" d="M2491.41 704.598L2627.75 713.104L2552.23 826.957L2491.41 704.598Z" fill="#63328B"/>
<path id="Polygon 54_5" d="M2567.57 583.145L2628.46 705.664L2491.88 697.153L2567.57 583.145Z" fill="#63328B"/>
<path id="Polygon 55_6" d="M2408.01 825.703L2544.35 834.209L2468.83 948.062L2408.01 825.703Z" fill="#63328B"/>
<path id="Polygon 56_6" d="M2484.15 704.623L2545.04 827.142L2408.45 818.631L2484.15 704.623Z" fill="#63328B"/>
</g>
<g id="tr&#195;&#179;jkaty_10">
<path id="Polygon 49_7" d="M2527.82 1337.29L2664.16 1345.79L2588.64 1459.64L2527.82 1337.29Z" fill="#63328B"/>
<path id="Polygon 50_7" d="M2603.98 1215.83L2664.87 1338.35L2528.28 1329.84L2603.98 1215.83Z" fill="#63328B"/>
<path id="Polygon 51_10" d="M2444.07 1458.34L2580.41 1466.85L2504.89 1580.7L2444.07 1458.34Z" fill="#63328B"/>
<path id="Polygon 52_8" d="M2520.23 1336.89L2581.12 1459.41L2444.53 1450.9L2520.23 1336.89Z" fill="#63328B"/>
<path id="Polygon 53_7" d="M2595.19 1467.76L2731.53 1476.26L2656.01 1590.12L2595.19 1467.76Z" fill="#63328B"/>
<path id="Polygon 54_6" d="M2671.35 1346.31L2732.24 1468.83L2595.66 1460.31L2671.35 1346.31Z" fill="#63328B"/>
<path id="Polygon 55_7" d="M2511.77 1589.24L2648.11 1597.74L2572.59 1711.6L2511.77 1589.24Z" fill="#63328B"/>
<path id="Polygon 56_7" d="M2587.93 1467.78L2648.82 1590.3L2512.23 1581.79L2587.93 1467.78Z" fill="#63328B"/>
</g>
<g id="tr&#195;&#179;jkaty_11">
<path id="Polygon 49_8" d="M2392.68 1077.38L2529.02 1085.89L2453.5 1199.74L2392.68 1077.38Z" fill="#63328B"/>
<path id="Polygon 50_8" d="M2468.84 955.928L2529.73 1078.45L2393.14 1069.94L2468.84 955.928Z" fill="#63328B"/>
<path id="Polygon 51_11" d="M2308.93 1198.44L2445.27 1206.94L2369.75 1320.8L2308.93 1198.44Z" fill="#63328B"/>
<path id="Polygon 52_9" d="M2385.09 1076.98L2445.98 1199.5L2309.39 1190.99L2385.09 1076.98Z" fill="#63328B"/>
<path id="Polygon 53_8" d="M2460.05 1207.85L2596.39 1216.36L2520.87 1330.21L2460.05 1207.85Z" fill="#63328B"/>
<path id="Polygon 54_7" d="M2536.21 1086.4L2597.1 1208.92L2460.52 1200.41L2536.21 1086.4Z" fill="#63328B"/>
<path id="Polygon 55_8" d="M2376.65 1328.96L2512.99 1337.47L2437.47 1451.32L2376.65 1328.96Z" fill="#63328B"/>
<path id="Polygon 56_8" d="M2452.79 1207.88L2513.68 1330.4L2377.09 1321.89L2452.79 1207.88Z" fill="#63328B"/>
</g>
<g id="tr&#195;&#179;jkaty_12">
<path id="Polygon 49_9" d="M2360.64 1579.47L2496.98 1587.98L2421.46 1701.83L2360.64 1579.47Z" fill="#63328B"/>
<path id="Polygon 50_9" d="M2436.8 1458.02L2497.69 1580.54L2361.1 1572.03L2436.8 1458.02Z" fill="#63328B"/>
<path id="Polygon 51_12" d="M2276.89 1700.53L2413.23 1709.04L2337.71 1822.89L2276.89 1700.53Z" fill="#63328B"/>
<path id="Polygon 52_10" d="M2353.05 1579.08L2413.94 1701.6L2277.35 1693.08L2353.05 1579.08Z" fill="#63328B"/>
<path id="Polygon 53_9" d="M2428.01 1709.95L2564.35 1718.45L2488.83 1832.3L2428.01 1709.95Z" fill="#63328B"/>
<path id="Polygon 54_8" d="M2504.18 1588.49L2565.06 1711.01L2428.48 1702.5L2504.18 1588.49Z" fill="#63328B"/>
<path id="Polygon 55_9" d="M2344.59 1831.42L2480.93 1839.93L2405.41 1953.78L2344.59 1831.42Z" fill="#63328B"/>
<path id="Polygon 56_9" d="M2420.75 1709.97L2481.64 1832.49L2345.05 1823.98L2420.75 1709.97Z" fill="#63328B"/>
</g>
<g id="tr&#195;&#179;jkaty_13">
<path id="Polygon 49_10" d="M2193.04 1822.38L2329.38 1830.89L2253.86 1944.74L2193.04 1822.38Z" fill="#63328B"/>
<path id="Polygon 50_10" d="M2269.2 1700.93L2330.09 1823.45L2193.51 1814.94L2269.2 1700.93Z" fill="#63328B"/>
<path id="Polygon 51_13" d="M2109.29 1943.44L2245.63 1951.94L2170.11 2065.8L2109.29 1943.44Z" fill="#63328B"/>
<path id="Polygon 52_11" d="M2185.45 1821.98L2246.34 1944.5L2109.76 1935.99L2185.45 1821.98Z" fill="#63328B"/>
<path id="Polygon 53_10" d="M2260.42 1952.86L2396.76 1961.36L2321.24 2075.21L2260.42 1952.86Z" fill="#63328B"/>
<path id="Polygon 54_9" d="M2336.58 1831.4L2397.47 1953.92L2260.88 1945.41L2336.58 1831.4Z" fill="#63328B"/>
<path id="Polygon 55_10" d="M2176.99 2074.33L2313.33 2082.84L2237.81 2196.69L2176.99 2074.33Z" fill="#63328B"/>
<path id="Polygon 56_10" d="M2253.15 1952.88L2314.04 2075.4L2177.46 2066.89L2253.15 1952.88Z" fill="#63328B"/>
</g>
<g id="tr&#195;&#179;jkaty_14">
<path id="Polygon 49_11" d="M2025.86 2064.57L2162.2 2073.08L2086.68 2186.93L2025.86 2064.57Z" fill="#63328B"/>
<path id="Polygon 50_11" d="M2102.03 1943.12L2162.91 2065.64L2026.33 2057.12L2102.03 1943.12Z" fill="#63328B"/>
<path id="Polygon 53_11" d="M2093.24 2195.04L2229.58 2203.55L2154.06 2317.4L2093.24 2195.04Z" fill="#63328B"/>
<path id="Polygon 54_10" d="M2169.4 2073.59L2230.29 2196.11L2093.7 2187.6L2169.4 2073.59Z" fill="#63328B"/>
<path id="Polygon 55_11" d="M2009.82 2316.52L2146.16 2325.03L2070.63 2438.88L2009.82 2316.52Z" fill="#63328B"/>
<path id="Polygon 56_11" d="M2085.98 2195.07L2146.86 2317.59L2010.28 2309.08L2085.98 2195.07Z" fill="#63328B"/>
</g>
<g id="tr&#195;&#179;jkaty_15">
<path id="Polygon 49_12" d="M2058.36 1561.01L2194.7 1569.52L2119.18 1683.37L2058.36 1561.01Z" fill="#63328B"/>
<path id="Polygon 50_12" d="M2134.53 1439.56L2195.41 1562.08L2058.83 1553.57L2134.53 1439.56Z" fill="#63328B"/>
<path id="Polygon 53_12" d="M2125.74 1691.48L2262.08 1699.99L2186.56 1813.84L2125.74 1691.48Z" fill="#63328B"/>
<path id="Polygon 54_11" d="M2201.9 1570.03L2262.79 1692.55L2126.2 1684.04L2201.9 1570.03Z" fill="#63328B"/>
<path id="Polygon 55_12" d="M2042.32 1812.96L2178.66 1821.47L2103.13 1935.32L2042.32 1812.96Z" fill="#63328B"/>
<path id="Polygon 56_12" d="M2118.48 1691.51L2179.36 1814.03L2042.78 1805.52L2118.48 1691.51Z" fill="#63328B"/>
</g>
<g id="tr&#195;&#179;jkaty_16">
<path id="Polygon 49_13" d="M2090.02 1058.9L2226.36 1067.4L2150.84 1181.25L2090.02 1058.9Z" fill="#63328B"/>
<path id="Polygon 50_13" d="M2166.19 937.442L2227.07 1059.96L2090.49 1051.45L2166.19 937.442Z" fill="#63328B"/>
<path id="Polygon 53_13" d="M2157.4 1189.37L2293.74 1197.87L2218.22 1311.73L2157.4 1189.37Z" fill="#63328B"/>
<path id="Polygon 54_12" d="M2233.56 1067.92L2294.45 1190.43L2157.86 1181.92L2233.56 1067.92Z" fill="#63328B"/>
<path id="Polygon 55_13" d="M2073.98 1310.85L2210.32 1319.35L2134.79 1433.2L2073.98 1310.85Z" fill="#63328B"/>
<path id="Polygon 56_13" d="M2150.14 1189.39L2211.02 1311.91L2074.44 1303.4L2150.14 1189.39Z" fill="#63328B"/>
</g>
<g id="tr&#195;&#179;jkaty_17">
<path id="Polygon 49_14" d="M2225.5 1319.57L2361.84 1328.07L2286.32 1441.93L2225.5 1319.57Z" fill="#63328B"/>
<path id="Polygon 50_14" d="M2301.66 1198.11L2362.55 1320.63L2225.96 1312.12L2301.66 1198.11Z" fill="#63328B"/>
<path id="Polygon 51_14" d="M2141.75 1440.62L2278.09 1449.13L2202.57 1562.98L2141.75 1440.62Z" fill="#63328B"/>
<path id="Polygon 52_12" d="M2217.91 1319.17L2278.8 1441.69L2142.21 1433.18L2217.91 1319.17Z" fill="#63328B"/>
<path id="Polygon 53_14" d="M2292.87 1450.04L2429.21 1458.55L2353.69 1572.4L2292.87 1450.04Z" fill="#63328B"/>
<path id="Polygon 54_13" d="M2369.03 1328.59L2429.92 1451.11L2293.34 1442.6L2369.03 1328.59Z" fill="#63328B"/>
<path id="Polygon 55_14" d="M2209.47 1571.15L2345.81 1579.65L2270.29 1693.5L2209.47 1571.15Z" fill="#63328B"/>
<path id="Polygon 56_14" d="M2285.61 1450.07L2346.49 1572.58L2209.91 1564.07L2285.61 1450.07Z" fill="#63328B"/>
</g>
<g id="tr&#195;&#179;jkaty_18">
<path id="Polygon 49_15" d="M2257.21 816.708L2393.55 825.214L2318.03 939.067L2257.21 816.708Z" fill="#63328B"/>
<path id="Polygon 50_15" d="M2333.37 695.255L2394.26 817.774L2257.67 809.263L2333.37 695.255Z" fill="#63328B"/>
<path id="Polygon 51_15" d="M2173.46 937.764L2309.8 946.27L2234.28 1060.12L2173.46 937.764Z" fill="#63328B"/>
<path id="Polygon 52_13" d="M2249.62 816.311L2310.51 938.83L2173.92 930.319L2249.62 816.311Z" fill="#63328B"/>
<path id="Polygon 53_15" d="M2324.58 947.181L2460.92 955.687L2385.4 1069.54L2324.58 947.181Z" fill="#63328B"/>
<path id="Polygon 54_14" d="M2400.74 825.728L2461.63 948.247L2325.05 939.736L2400.74 825.728Z" fill="#63328B"/>
<path id="Polygon 55_15" d="M2241.18 1068.29L2377.52 1076.79L2302 1190.65L2241.18 1068.29Z" fill="#63328B"/>
<path id="Polygon 56_15" d="M2317.32 947.206L2378.21 1069.72L2241.62 1061.21L2317.32 947.206Z" fill="#63328B"/>
</g>
</g>
<g id="triangles_2">
<g id="tr&#195;&#179;jkaty_19">
<path id="Polygon 49_16" d="M1838.22 1422.08L1974.56 1430.59L1899.04 1544.44L1838.22 1422.08Z" fill="#63328B"/>
<path id="Polygon 50_16" d="M1914.38 1300.63L1975.27 1423.15L1838.69 1414.64L1914.38 1300.63Z" fill="#63328B"/>
<path id="Polygon 51_16" d="M1754.47 1543.14L1890.81 1551.64L1815.29 1665.5L1754.47 1543.14Z" fill="#63328B"/>
<path id="Polygon 52_14" d="M1830.63 1421.68L1891.52 1544.2L1754.94 1535.69L1830.63 1421.68Z" fill="#63328B"/>
<path id="Polygon 53_16" d="M1905.6 1552.55L2041.94 1561.06L1966.42 1674.91L1905.6 1552.55Z" fill="#63328B"/>
<path id="Polygon 54_15" d="M1981.76 1431.1L2042.65 1553.62L1906.06 1545.11L1981.76 1431.1Z" fill="#63328B"/>
<path id="Polygon 55_16" d="M1822.17 1674.03L1958.51 1682.54L1882.99 1796.39L1822.17 1674.03Z" fill="#63328B"/>
<path id="Polygon 56_16" d="M1898.33 1552.58L1959.22 1675.1L1822.64 1666.59L1898.33 1552.58Z" fill="#63328B"/>
</g>
<g id="tr&#195;&#179;jkaty_20">
<path id="Polygon 49_17" d="M1670.7 1663.85L1807.04 1672.35L1731.52 1786.2L1670.7 1663.85Z" fill="#63328B"/>
<path id="Polygon 50_17" d="M1746.86 1542.39L1807.74 1664.91L1671.16 1656.4L1746.86 1542.39Z" fill="#63328B"/>
<path id="Polygon 51_17" d="M1586.95 1784.9L1723.29 1793.41L1647.77 1907.26L1586.95 1784.9Z" fill="#63328B"/>
<path id="Polygon 52_15" d="M1663.11 1663.45L1724 1785.97L1587.41 1777.46L1663.11 1663.45Z" fill="#63328B"/>
<path id="Polygon 53_17" d="M1738.07 1794.32L1874.41 1802.82L1798.89 1916.68L1738.07 1794.32Z" fill="#63328B"/>
<path id="Polygon 54_16" d="M1814.23 1672.87L1875.12 1795.38L1738.54 1786.87L1814.23 1672.87Z" fill="#63328B"/>
<path id="Polygon 55_17" d="M1654.65 1915.8L1790.99 1924.3L1715.47 2038.15L1654.65 1915.8Z" fill="#63328B"/>
<path id="Polygon 56_17" d="M1730.81 1794.34L1791.7 1916.86L1655.11 1908.35L1730.81 1794.34Z" fill="#63328B"/>
</g>
<g id="tr&#195;&#179;jkaty_21">
<path id="Polygon 49_18" d="M1806.51 1924.94L1942.85 1933.45L1867.33 2047.3L1806.51 1924.94Z" fill="#63328B"/>
<path id="Polygon 50_18" d="M1882.67 1803.49L1943.56 1926.01L1806.98 1917.5L1882.67 1803.49Z" fill="#63328B"/>
<path id="Polygon 51_18" d="M1722.76 2046L1859.1 2054.5L1783.58 2168.35L1722.76 2046Z" fill="#63328B"/>
<path id="Polygon 52_16" d="M1798.92 1924.54L1859.81 2047.06L1723.23 2038.55L1798.92 1924.54Z" fill="#63328B"/>
<path id="Polygon 53_18" d="M1873.89 2055.41L2010.23 2063.92L1934.71 2177.77L1873.89 2055.41Z" fill="#63328B"/>
<path id="Polygon 54_17" d="M1950.05 1933.96L2010.94 2056.48L1874.35 2047.97L1950.05 1933.96Z" fill="#63328B"/>
<path id="Polygon 55_18" d="M1790.46 2176.89L1926.8 2185.4L1851.28 2299.25L1790.46 2176.89Z" fill="#63328B"/>
<path id="Polygon 56_18" d="M1866.62 2055.44L1927.51 2177.96L1790.93 2169.45L1866.62 2055.44Z" fill="#63328B"/>
</g>
<g id="tr&#195;&#179;jkaty_22">
<path id="Polygon 49_19" d="M1974.04 1683.12L2110.38 1691.63L2034.86 1805.48L1974.04 1683.12Z" fill="#63328B"/>
<path id="Polygon 50_19" d="M2050.2 1561.67L2111.09 1684.19L1974.51 1675.68L2050.2 1561.67Z" fill="#63328B"/>
<path id="Polygon 51_19" d="M1890.29 1804.18L2026.63 1812.68L1951.11 1926.54L1890.29 1804.18Z" fill="#63328B"/>
<path id="Polygon 52_17" d="M1966.45 1682.72L2027.34 1805.24L1890.76 1796.73L1966.45 1682.72Z" fill="#63328B"/>
<path id="Polygon 55_19" d="M1957.99 1935.07L2094.33 1943.58L2018.81 2057.43L1957.99 1935.07Z" fill="#63328B"/>
<path id="Polygon 56_19" d="M2034.15 1813.62L2095.04 1936.14L1958.46 1927.63L2034.15 1813.62Z" fill="#63328B"/>
</g>
<g id="tr&#195;&#179;jkaty_23">
<path id="Polygon 49_20" d="M2005.77 1179.89L2142.11 1188.4L2066.59 1302.25L2005.77 1179.89Z" fill="#63328B"/>
<path id="Polygon 50_20" d="M2081.94 1058.44L2142.82 1180.96L2006.24 1172.44L2081.94 1058.44Z" fill="#63328B"/>
<path id="Polygon 51_20" d="M1922.02 1300.95L2058.36 1309.45L1982.84 1423.3L1922.02 1300.95Z" fill="#63328B"/>
<path id="Polygon 52_18" d="M1998.19 1179.49L2059.07 1302.01L1922.49 1293.5L1998.19 1179.49Z" fill="#63328B"/>
<path id="Polygon 55_20" d="M1989.72 1431.84L2126.06 1440.35L2050.54 1554.2L1989.72 1431.84Z" fill="#63328B"/>
<path id="Polygon 56_20" d="M2065.88 1310.39L2126.77 1432.91L1990.19 1424.4L2065.88 1310.39Z" fill="#63328B"/>
</g>
<g id="tr&#195;&#179;jkaty_24">
<path id="Polygon 49_21" d="M1941.96 2185.96L2078.3 2194.46L2002.78 2308.32L1941.96 2185.96Z" fill="#63328B"/>
<path id="Polygon 50_21" d="M2018.12 2064.51L2079.01 2187.03L1942.43 2178.51L2018.12 2064.51Z" fill="#63328B"/>
<path id="Polygon 51_21" d="M1858.21 2307.01L1994.55 2315.52L1919.03 2429.37L1858.21 2307.01Z" fill="#63328B"/>
<path id="Polygon 52_19" d="M1934.37 2185.56L1995.26 2308.08L1858.68 2299.57L1934.37 2185.56Z" fill="#63328B"/>
<path id="Polygon 55_21" d="M1925.91 2437.91L2062.25 2446.42L1986.73 2560.27L1925.91 2437.91Z" fill="#63328B"/>
<path id="Polygon 56_21" d="M2002.07 2316.46L2062.96 2438.98L1926.38 2430.46L2002.07 2316.46Z" fill="#63328B"/>
</g>
<g id="tr&#195;&#179;jkaty_25">
<path id="Polygon 49_22" d="M1774.81 2427.77L1911.15 2436.28L1835.63 2550.13L1774.81 2427.77Z" fill="#63328B"/>
<path id="Polygon 50_22" d="M1850.97 2306.32L1911.86 2428.84L1775.27 2420.33L1850.97 2306.32Z" fill="#63328B"/>
<path id="Polygon 51_22" d="M1691.06 2548.83L1827.4 2557.34L1751.88 2671.19L1691.06 2548.83Z" fill="#63328B"/>
<path id="Polygon 52_20" d="M1767.22 2427.38L1828.11 2549.9L1691.52 2541.39L1767.22 2427.38Z" fill="#63328B"/>
<path id="Polygon 53_19" d="M1842.18 2558.25L1978.52 2566.75L1903 2680.61L1842.18 2558.25Z" fill="#63328B"/>
<path id="Polygon 54_18" d="M1918.34 2436.79L1979.23 2559.31L1842.65 2550.8L1918.34 2436.79Z" fill="#63328B"/>
<path id="Polygon 55_22" d="M1758.76 2679.72L1895.1 2688.23L1819.58 2802.08L1758.76 2679.72Z" fill="#63328B"/>
<path id="Polygon 56_22" d="M1834.92 2558.27L1895.81 2680.79L1759.22 2672.28L1834.92 2558.27Z" fill="#63328B"/>
</g>
<g id="tr&#195;&#179;jkaty_26">
<path id="Polygon 49_23" d="M1639.32 2167.47L1775.66 2175.98L1700.13 2289.83L1639.32 2167.47Z" fill="#63328B"/>
<path id="Polygon 50_23" d="M1715.47 2046.02L1776.36 2168.54L1639.78 2160.03L1715.47 2046.02Z" fill="#63328B"/>
<path id="Polygon 51_23" d="M1555.57 2288.53L1691.91 2297.04L1616.38 2410.89L1555.57 2288.53Z" fill="#63328B"/>
<path id="Polygon 52_21" d="M1631.73 2167.08L1692.61 2289.6L1556.03 2281.08L1631.73 2167.08Z" fill="#63328B"/>
<path id="Polygon 53_20" d="M1706.69 2297.95L1843.03 2306.45L1767.51 2420.31L1706.69 2297.95Z" fill="#63328B"/>
<path id="Polygon 54_19" d="M1782.85 2176.49L1843.74 2299.01L1707.15 2290.5L1782.85 2176.49Z" fill="#63328B"/>
<path id="Polygon 55_23" d="M1623.29 2419.05L1759.63 2427.56L1684.11 2541.41L1623.29 2419.05Z" fill="#63328B"/>
<path id="Polygon 56_23" d="M1699.43 2297.97L1760.31 2420.49L1623.73 2411.98L1699.43 2297.97Z" fill="#63328B"/>
</g>
<g id="tr&#195;&#179;jkaty_27">
<path id="Polygon 49_24" d="M1503.85 1906.8L1640.19 1915.31L1564.67 2029.16L1503.85 1906.8Z" fill="#63328B"/>
<path id="Polygon 50_24" d="M1580.01 1785.35L1640.9 1907.87L1504.31 1899.36L1580.01 1785.35Z" fill="#63328B"/>
<path id="Polygon 51_24" d="M1420.1 2027.86L1556.44 2036.36L1480.92 2150.22L1420.1 2027.86Z" fill="#63328B"/>
<path id="Polygon 52_22" d="M1496.26 1906.4L1557.15 2028.92L1420.56 2020.41L1496.26 1906.4Z" fill="#63328B"/>
<path id="Polygon 53_21" d="M1571.22 2037.27L1707.56 2045.78L1632.04 2159.63L1571.22 2037.27Z" fill="#63328B"/>
<path id="Polygon 54_20" d="M1647.38 1915.82L1708.27 2038.34L1571.69 2029.83L1647.38 1915.82Z" fill="#63328B"/>
<path id="Polygon 55_24" d="M1487.82 2158.38L1624.16 2166.89L1548.64 2280.74L1487.82 2158.38Z" fill="#63328B"/>
<path id="Polygon 56_24" d="M1563.96 2037.3L1624.85 2159.82L1488.26 2151.31L1563.96 2037.3Z" fill="#63328B"/>
</g>
<g id="tr&#195;&#179;jkaty_28">
<path id="Polygon 49_25" d="M1607.63 2669.96L1743.97 2678.47L1668.45 2792.32L1607.63 2669.96Z" fill="#63328B"/>
<path id="Polygon 50_25" d="M1683.79 2548.51L1744.68 2671.03L1608.09 2662.52L1683.79 2548.51Z" fill="#63328B"/>
<path id="Polygon 51_25" d="M1523.88 2791.02L1660.22 2799.52L1584.7 2913.38L1523.88 2791.02Z" fill="#63328B"/>
<path id="Polygon 52_23" d="M1600.04 2669.56L1660.93 2792.08L1524.34 2783.57L1600.04 2669.56Z" fill="#63328B"/>
<path id="Polygon 53_22" d="M1675 2800.43L1811.35 2808.94L1735.82 2922.79L1675 2800.43Z" fill="#63328B"/>
<path id="Polygon 54_21" d="M1751.17 2678.98L1812.05 2801.5L1675.47 2792.99L1751.17 2678.98Z" fill="#63328B"/>
<path id="Polygon 55_25" d="M1591.58 2921.91L1727.92 2930.42L1652.4 3044.27L1591.58 2921.91Z" fill="#63328B"/>
<path id="Polygon 56_25" d="M1667.74 2800.46L1728.63 2922.98L1592.04 2914.47L1667.74 2800.46Z" fill="#63328B"/>
</g>
<g id="tr&#195;&#179;jkaty_29">
<path id="Polygon 49_26" d="M1472.49 2410.06L1608.83 2418.56L1533.31 2532.42L1472.49 2410.06Z" fill="#63328B"/>
<path id="Polygon 50_26" d="M1548.65 2288.6L1609.54 2411.12L1472.95 2402.61L1548.65 2288.6Z" fill="#63328B"/>
<path id="Polygon 51_26" d="M1388.74 2531.11L1525.08 2539.62L1449.56 2653.47L1388.74 2531.11Z" fill="#63328B"/>
<path id="Polygon 52_24" d="M1464.9 2409.66L1525.79 2532.18L1389.2 2523.67L1464.9 2409.66Z" fill="#63328B"/>
<path id="Polygon 53_23" d="M1539.86 2540.53L1676.2 2549.04L1600.68 2662.89L1539.86 2540.53Z" fill="#63328B"/>
<path id="Polygon 54_22" d="M1616.03 2419.08L1676.91 2541.6L1540.33 2533.08L1616.03 2419.08Z" fill="#63328B"/>
<path id="Polygon 55_26" d="M1456.46 2661.63L1592.8 2670.14L1517.28 2783.99L1456.46 2661.63Z" fill="#63328B"/>
<path id="Polygon 56_26" d="M1532.6 2540.55L1593.49 2663.07L1456.9 2654.56L1532.6 2540.55Z" fill="#63328B"/>
</g>
<g id="tr&#195;&#179;jkaty_30">
<path id="Polygon 49_27" d="M1440.45 2912.15L1576.79 2920.65L1501.27 3034.51L1440.45 2912.15Z" fill="#63328B"/>
<path id="Polygon 50_27" d="M1516.61 2790.7L1577.5 2913.22L1440.91 2904.7L1516.61 2790.7Z" fill="#63328B"/>
<path id="Polygon 51_27" d="M1356.7 3033.2L1493.04 3041.71L1417.52 3155.56L1356.7 3033.2Z" fill="#63328B"/>
<path id="Polygon 52_25" d="M1432.86 2911.75L1493.75 3034.27L1357.17 3025.76L1432.86 2911.75Z" fill="#63328B"/>
<path id="Polygon 53_24" d="M1507.83 3042.62L1644.17 3051.13L1568.65 3164.98L1507.83 3042.62Z" fill="#63328B"/>
<path id="Polygon 54_23" d="M1583.99 2921.17L1644.88 3043.69L1508.29 3035.18L1583.99 2921.17Z" fill="#63328B"/>
<path id="Polygon 55_27" d="M1424.4 3164.1L1560.74 3172.61L1485.22 3286.46L1424.4 3164.1Z" fill="#63328B"/>
<path id="Polygon 56_27" d="M1500.56 3042.65L1561.45 3165.17L1424.87 3156.65L1500.56 3042.65Z" fill="#63328B"/>
</g>
<g id="tr&#195;&#179;jkaty_31">
<path id="Polygon 49_28" d="M1272.86 3155.06L1409.2 3163.56L1333.68 3277.42L1272.86 3155.06Z" fill="#63328B"/>
<path id="Polygon 50_28" d="M1349.02 3033.6L1409.9 3156.12L1273.32 3147.61L1349.02 3033.6Z" fill="#63328B"/>
<path id="Polygon 51_28" d="M1189.11 3276.11L1325.45 3284.62L1249.93 3398.47L1189.11 3276.11Z" fill="#63328B"/>
<path id="Polygon 52_26" d="M1265.27 3154.66L1326.15 3277.18L1189.57 3268.67L1265.27 3154.66Z" fill="#63328B"/>
<path id="Polygon 53_25" d="M1340.23 3285.53L1476.57 3294.04L1401.05 3407.89L1340.23 3285.53Z" fill="#63328B"/>
<path id="Polygon 54_24" d="M1416.39 3164.08L1477.28 3286.6L1340.7 3278.09L1416.39 3164.08Z" fill="#63328B"/>
<path id="Polygon 55_28" d="M1256.81 3407.01L1393.15 3415.51L1317.62 3529.37L1256.81 3407.01Z" fill="#63328B"/>
<path id="Polygon 56_28" d="M1332.97 3285.56L1393.85 3408.07L1257.27 3399.56L1332.97 3285.56Z" fill="#63328B"/>
</g>
<g id="tr&#195;&#179;jkaty_32">
<path id="Polygon 49_29" d="M1105.68 3397.25L1242.02 3405.75L1166.5 3519.6L1105.68 3397.25Z" fill="#63328B"/>
<path id="Polygon 50_29" d="M1181.84 3275.79L1242.73 3398.31L1106.14 3389.8L1181.84 3275.79Z" fill="#63328B"/>
<path id="Polygon 53_26" d="M1173.05 3527.72L1309.39 3536.22L1233.87 3650.08L1173.05 3527.72Z" fill="#63328B"/>
<path id="Polygon 54_25" d="M1249.21 3406.27L1310.1 3528.78L1173.52 3520.27L1249.21 3406.27Z" fill="#63328B"/>
<path id="Polygon 55_29" d="M1089.63 3649.2L1225.97 3657.7L1150.45 3771.55L1089.63 3649.2Z" fill="#63328B"/>
<path id="Polygon 56_29" d="M1165.79 3527.74L1226.68 3650.26L1090.09 3641.75L1165.79 3527.74Z" fill="#63328B"/>
</g>
<g id="tr&#195;&#179;jkaty_33">
<path id="Polygon 49_30" d="M1138.18 2893.69L1274.52 2902.19L1199 3016.05L1138.18 2893.69Z" fill="#63328B"/>
<path id="Polygon 50_30" d="M1214.34 2772.23L1275.23 2894.75L1138.64 2886.24L1214.34 2772.23Z" fill="#63328B"/>
<path id="Polygon 53_27" d="M1205.55 3024.16L1341.89 3032.67L1266.37 3146.52L1205.55 3024.16Z" fill="#63328B"/>
<path id="Polygon 54_26" d="M1281.71 2902.71L1342.6 3025.23L1206.02 3016.72L1281.71 2902.71Z" fill="#63328B"/>
<path id="Polygon 55_30" d="M1122.13 3145.64L1258.47 3154.14L1182.95 3268L1122.13 3145.64Z" fill="#63328B"/>
<path id="Polygon 56_30" d="M1198.29 3024.18L1259.18 3146.7L1122.59 3138.19L1198.29 3024.18Z" fill="#63328B"/>
</g>
<g id="tr&#195;&#179;jkaty_34">
<path id="Polygon 49_31" d="M1169.84 2391.57L1306.18 2400.08L1230.66 2513.93L1169.84 2391.57Z" fill="#63328B"/>
<path id="Polygon 50_31" d="M1246 2270.12L1306.89 2392.64L1170.3 2384.13L1246 2270.12Z" fill="#63328B"/>
<path id="Polygon 53_28" d="M1237.22 2522.04L1373.56 2530.55L1298.03 2644.4L1237.22 2522.04Z" fill="#63328B"/>
<path id="Polygon 54_27" d="M1313.37 2400.59L1374.26 2523.11L1237.68 2514.6L1313.37 2400.59Z" fill="#63328B"/>
<path id="Polygon 55_31" d="M1153.79 2643.52L1290.13 2652.03L1214.61 2765.88L1153.79 2643.52Z" fill="#63328B"/>
<path id="Polygon 56_31" d="M1229.95 2522.07L1290.84 2644.59L1154.25 2636.08L1229.95 2522.07Z" fill="#63328B"/>
</g>
<g id="tr&#195;&#179;jkaty_35">
<path id="Polygon 49_32" d="M1305.31 2652.24L1441.65 2660.75L1366.13 2774.6L1305.31 2652.24Z" fill="#63328B"/>
<path id="Polygon 50_32" d="M1381.47 2530.79L1442.36 2653.31L1305.77 2644.8L1381.47 2530.79Z" fill="#63328B"/>
<path id="Polygon 51_29" d="M1221.56 2773.3L1357.9 2781.81L1282.38 2895.66L1221.56 2773.3Z" fill="#63328B"/>
<path id="Polygon 52_27" d="M1297.72 2651.85L1358.61 2774.37L1222.02 2765.86L1297.72 2651.85Z" fill="#63328B"/>
<path id="Polygon 53_29" d="M1372.68 2782.72L1509.02 2791.22L1433.5 2905.08L1372.68 2782.72Z" fill="#63328B"/>
<path id="Polygon 54_28" d="M1448.85 2661.26L1509.73 2783.78L1373.15 2775.27L1448.85 2661.26Z" fill="#63328B"/>
<path id="Polygon 55_32" d="M1289.28 2903.82L1425.62 2912.33L1350.1 3026.18L1289.28 2903.82Z" fill="#63328B"/>
<path id="Polygon 56_32" d="M1365.42 2782.74L1426.31 2905.26L1289.72 2896.75L1365.42 2782.74Z" fill="#63328B"/>
</g>
<g id="tr&#195;&#179;jkaty_36">
<path id="Polygon 49_33" d="M1337.02 2149.38L1473.36 2157.89L1397.84 2271.74L1337.02 2149.38Z" fill="#63328B"/>
<path id="Polygon 50_33" d="M1413.18 2027.93L1474.07 2150.45L1337.48 2141.94L1413.18 2027.93Z" fill="#63328B"/>
<path id="Polygon 51_30" d="M1253.27 2270.44L1389.61 2278.95L1314.09 2392.8L1253.27 2270.44Z" fill="#63328B"/>
<path id="Polygon 52_28" d="M1329.43 2148.99L1390.32 2271.51L1253.73 2262.99L1329.43 2148.99Z" fill="#63328B"/>
<path id="Polygon 53_30" d="M1404.39 2279.86L1540.73 2288.36L1465.21 2402.22L1404.39 2279.86Z" fill="#63328B"/>
<path id="Polygon 54_29" d="M1480.55 2158.4L1541.44 2280.92L1404.86 2272.41L1480.55 2158.4Z" fill="#63328B"/>
<path id="Polygon 55_33" d="M1320.99 2400.96L1457.33 2409.47L1381.81 2523.32L1320.99 2400.96Z" fill="#63328B"/>
<path id="Polygon 56_33" d="M1397.13 2279.88L1458.02 2402.4L1321.43 2393.89L1397.13 2279.88Z" fill="#63328B"/>
</g>
</g>
<g id="triangles_3">
<g id="tr&#195;&#179;jkaty_37">
<path id="Polygon 49_34" d="M918.651 2755.15L1054.99 2763.65L979.471 2877.51L918.651 2755.15Z" fill="#63328B"/>
<path id="Polygon 50_34" d="M994.812 2633.69L1055.7 2756.21L919.115 2747.7L994.812 2633.69Z" fill="#63328B"/>
<path id="Polygon 51_31" d="M834.901 2876.2L971.242 2884.71L895.721 2998.56L834.901 2876.2Z" fill="#63328B"/>
<path id="Polygon 52_29" d="M911.062 2754.75L971.95 2877.27L835.365 2868.76L911.062 2754.75Z" fill="#63328B"/>
<path id="Polygon 53_31" d="M986.026 2885.62L1122.37 2894.13L1046.85 3007.98L986.026 2885.62Z" fill="#63328B"/>
<path id="Polygon 54_30" d="M1062.19 2764.17L1123.07 2886.69L986.49 2878.18L1062.19 2764.17Z" fill="#63328B"/>
<path id="Polygon 55_34" d="M902.6 3007.1L1038.94 3015.6L963.42 3129.46L902.6 3007.1Z" fill="#63328B"/>
<path id="Polygon 56_34" d="M978.761 2885.64L1039.65 3008.16L903.065 2999.65L978.761 2885.64Z" fill="#63328B"/>
</g>
<g id="tr&#195;&#179;jkaty_38">
<path id="Polygon 49_35" d="M751.126 2996.91L887.466 3005.42L811.945 3119.27L751.126 2996.91Z" fill="#63328B"/>
<path id="Polygon 50_35" d="M827.285 2875.46L888.172 2997.98L751.588 2989.47L827.285 2875.46Z" fill="#63328B"/>
<path id="Polygon 51_32" d="M667.376 3117.97L803.716 3126.47L728.195 3240.33L667.376 3117.97Z" fill="#63328B"/>
<path id="Polygon 52_30" d="M743.537 2996.51L804.424 3119.03L667.84 3110.52L743.537 2996.51Z" fill="#63328B"/>
<path id="Polygon 53_32" d="M818.501 3127.38L954.841 3135.89L879.32 3249.74L818.501 3127.38Z" fill="#63328B"/>
<path id="Polygon 54_31" d="M894.662 3005.93L955.549 3128.45L818.965 3119.94L894.662 3005.93Z" fill="#63328B"/>
<path id="Polygon 55_35" d="M735.075 3248.86L871.415 3257.37L795.894 3371.22L735.075 3248.86Z" fill="#63328B"/>
<path id="Polygon 56_35" d="M811.236 3127.41L872.124 3249.93L735.539 3241.42L811.236 3127.41Z" fill="#63328B"/>
</g>
<g id="tr&#195;&#179;jkaty_39">
<path id="Polygon 49_36" d="M886.94 3258.01L1023.28 3266.51L947.76 3380.36L886.94 3258.01Z" fill="#63328B"/>
<path id="Polygon 50_36" d="M963.101 3136.55L1023.99 3259.07L887.404 3250.56L963.101 3136.55Z" fill="#63328B"/>
<path id="Polygon 51_33" d="M803.19 3379.06L939.531 3387.57L864.01 3501.42L803.19 3379.06Z" fill="#63328B"/>
<path id="Polygon 52_31" d="M879.351 3257.61L940.239 3380.13L803.654 3371.62L879.351 3257.61Z" fill="#63328B"/>
<path id="Polygon 53_33" d="M954.315 3388.48L1090.66 3396.98L1015.13 3510.84L954.315 3388.48Z" fill="#63328B"/>
<path id="Polygon 54_32" d="M1030.48 3267.03L1091.36 3389.54L954.779 3381.03L1030.48 3267.03Z" fill="#63328B"/>
<path id="Polygon 55_36" d="M870.889 3509.96L1007.23 3518.46L931.709 3632.31L870.889 3509.96Z" fill="#63328B"/>
<path id="Polygon 56_36" d="M947.05 3388.5L1007.94 3511.02L871.354 3502.51L947.05 3388.5Z" fill="#63328B"/>
</g>
<g id="tr&#195;&#179;jkaty_40">
<path id="Polygon 49_37" d="M1054.47 3016.19L1190.81 3024.69L1115.29 3138.55L1054.47 3016.19Z" fill="#63328B"/>
<path id="Polygon 50_37" d="M1130.63 2894.73L1191.52 3017.25L1054.94 3008.74L1130.63 2894.73Z" fill="#63328B"/>
<path id="Polygon 51_34" d="M970.721 3137.24L1107.06 3145.75L1031.54 3259.6L970.721 3137.24Z" fill="#63328B"/>
<path id="Polygon 52_32" d="M1046.88 3015.79L1107.77 3138.31L971.186 3129.8L1046.88 3015.79Z" fill="#63328B"/>
<path id="Polygon 55_37" d="M1038.42 3268.14L1174.76 3276.64L1099.24 3390.5L1038.42 3268.14Z" fill="#63328B"/>
<path id="Polygon 56_37" d="M1114.58 3146.68L1175.47 3269.2L1038.88 3260.69L1114.58 3146.68Z" fill="#63328B"/>
</g>
<g id="tr&#195;&#179;jkaty_41">
<path id="Polygon 49_38" d="M1086.2 2512.95L1222.54 2521.46L1147.02 2635.31L1086.2 2512.95Z" fill="#63328B"/>
<path id="Polygon 50_38" d="M1162.36 2391.5L1223.25 2514.02L1086.67 2505.51L1162.36 2391.5Z" fill="#63328B"/>
<path id="Polygon 51_35" d="M1002.45 2634.01L1138.79 2642.52L1063.27 2756.37L1002.45 2634.01Z" fill="#63328B"/>
<path id="Polygon 52_33" d="M1078.61 2512.56L1139.5 2635.08L1002.92 2626.57L1078.61 2512.56Z" fill="#63328B"/>
<path id="Polygon 55_38" d="M1070.15 2764.91L1206.49 2773.41L1130.97 2887.26L1070.15 2764.91Z" fill="#63328B"/>
<path id="Polygon 56_38" d="M1146.31 2643.45L1207.2 2765.97L1070.62 2757.46L1146.31 2643.45Z" fill="#63328B"/>
</g>
<g id="tr&#195;&#179;jkaty_42">
<path id="Polygon 49_39" d="M1022.39 3519.02L1158.73 3527.53L1083.21 3641.38L1022.39 3519.02Z" fill="#63328B"/>
<path id="Polygon 50_39" d="M1098.55 3397.57L1159.44 3520.09L1022.85 3511.58L1098.55 3397.57Z" fill="#63328B"/>
<path id="Polygon 51_36" d="M938.641 3640.08L1074.98 3648.59L999.461 3762.44L938.641 3640.08Z" fill="#63328B"/>
<path id="Polygon 52_34" d="M1014.8 3518.63L1075.69 3641.15L939.106 3632.64L1014.8 3518.63Z" fill="#63328B"/>
<path id="Polygon 55_39" d="M1006.34 3770.97L1142.68 3779.48L1067.16 3893.33L1006.34 3770.97Z" fill="#63328B"/>
<path id="Polygon 56_39" d="M1082.5 3649.52L1143.39 3772.04L1006.8 3763.53L1082.5 3649.52Z" fill="#63328B"/>
</g>
<g id="tr&#195;&#179;jkaty_43">
<path id="Polygon 49_40" d="M855.235 3760.84L991.576 3769.35L916.054 3883.2L855.235 3760.84Z" fill="#63328B"/>
<path id="Polygon 50_40" d="M931.396 3639.39L992.284 3761.91L855.699 3753.39L931.396 3639.39Z" fill="#63328B"/>
<path id="Polygon 51_37" d="M771.485 3881.9L907.826 3890.4L832.304 4004.25L771.485 3881.9Z" fill="#63328B"/>
<path id="Polygon 52_35" d="M847.646 3760.44L908.534 3882.96L771.949 3874.45L847.646 3760.44Z" fill="#63328B"/>
<path id="Polygon 53_34" d="M922.61 3891.31L1058.95 3899.82L983.429 4013.67L922.61 3891.31Z" fill="#63328B"/>
<path id="Polygon 54_33" d="M998.771 3769.86L1059.66 3892.38L923.074 3883.87L998.771 3769.86Z" fill="#63328B"/>
<path id="Polygon 55_40" d="M839.184 4012.79L975.525 4021.3L900.004 4135.15L839.184 4012.79Z" fill="#63328B"/>
<path id="Polygon 56_40" d="M915.345 3891.34L976.233 4013.86L839.649 4005.35L915.345 3891.34Z" fill="#63328B"/>
</g>
<g id="tr&#195;&#179;jkaty_44">
<path id="Polygon 49_41" d="M719.743 3500.54L856.083 3509.04L780.562 3622.9L719.743 3500.54Z" fill="#63328B"/>
<path id="Polygon 50_41" d="M795.902 3379.09L856.79 3501.61L720.205 3493.09L795.902 3379.09Z" fill="#63328B"/>
<path id="Polygon 51_38" d="M635.993 3621.59L772.333 3630.1L696.812 3743.95L635.993 3621.59Z" fill="#63328B"/>
<path id="Polygon 52_36" d="M712.154 3500.14L773.042 3622.66L636.457 3614.15L712.154 3500.14Z" fill="#63328B"/>
<path id="Polygon 53_35" d="M787.118 3631.01L923.458 3639.52L847.937 3753.37L787.118 3631.01Z" fill="#63328B"/>
<path id="Polygon 54_34" d="M863.279 3509.56L924.167 3632.08L787.582 3623.57L863.279 3509.56Z" fill="#63328B"/>
<path id="Polygon 55_41" d="M703.715 3752.12L840.056 3760.62L764.535 3874.48L703.715 3752.12Z" fill="#63328B"/>
<path id="Polygon 56_41" d="M779.853 3631.04L840.741 3753.56L704.156 3745.04L779.853 3631.04Z" fill="#63328B"/>
</g>
<g id="tr&#195;&#179;jkaty_45">
<path id="Polygon 49_42" d="M584.276 3239.87L720.617 3248.37L645.096 3362.22L584.276 3239.87Z" fill="#63328B"/>
<path id="Polygon 50_42" d="M660.435 3118.41L721.323 3240.93L584.738 3232.42L660.435 3118.41Z" fill="#63328B"/>
<path id="Polygon 51_39" d="M500.526 3360.92L636.867 3369.43L561.346 3483.28L500.526 3360.92Z" fill="#63328B"/>
<path id="Polygon 52_37" d="M576.687 3239.47L637.575 3361.99L500.99 3353.48L576.687 3239.47Z" fill="#63328B"/>
<path id="Polygon 53_36" d="M651.651 3370.34L787.992 3378.85L712.471 3492.7L651.651 3370.34Z" fill="#63328B"/>
<path id="Polygon 54_35" d="M727.812 3248.89L788.7 3371.41L652.115 3362.89L727.812 3248.89Z" fill="#63328B"/>
<path id="Polygon 55_42" d="M568.249 3491.44L704.589 3499.95L629.068 3613.8L568.249 3491.44Z" fill="#63328B"/>
<path id="Polygon 56_42" d="M644.386 3370.36L705.274 3492.88L568.69 3484.37L644.386 3370.36Z" fill="#63328B"/>
</g>
<g id="tr&#195;&#179;jkaty_46">
<path id="Polygon 49_43" d="M688.057 4003.03L824.398 4011.53L748.877 4125.39L688.057 4003.03Z" fill="#63328B"/>
<path id="Polygon 50_43" d="M764.218 3881.57L825.106 4004.09L688.522 3995.58L764.218 3881.57Z" fill="#63328B"/>
<path id="Polygon 51_40" d="M604.307 4124.08L740.648 4132.59L665.127 4246.44L604.307 4124.08Z" fill="#63328B"/>
<path id="Polygon 52_38" d="M680.468 4002.63L741.356 4125.15L604.772 4116.64L680.468 4002.63Z" fill="#63328B"/>
<path id="Polygon 53_37" d="M755.432 4133.5L891.773 4142.01L816.252 4255.86L755.432 4133.5Z" fill="#63328B"/>
<path id="Polygon 54_36" d="M831.593 4012.05L892.481 4134.57L755.897 4126.06L831.593 4012.05Z" fill="#63328B"/>
<path id="Polygon 55_43" d="M672.006 4254.98L808.347 4263.48L732.826 4377.34L672.006 4254.98Z" fill="#63328B"/>
<path id="Polygon 56_43" d="M748.168 4133.52L809.055 4256.04L672.471 4247.53L748.168 4133.52Z" fill="#63328B"/>
</g>
<g id="tr&#195;&#179;jkaty_47">
<path id="Polygon 49_44" d="M552.917 3743.12L689.257 3751.63L613.736 3865.48L552.917 3743.12Z" fill="#63328B"/>
<path id="Polygon 50_44" d="M629.076 3621.67L689.963 3744.19L553.379 3735.68L629.076 3621.67Z" fill="#63328B"/>
<path id="Polygon 51_41" d="M469.167 3864.18L605.507 3872.68L529.986 3986.54L469.167 3864.18Z" fill="#63328B"/>
<path id="Polygon 52_39" d="M545.328 3742.72L606.215 3865.24L469.631 3856.73L545.328 3742.72Z" fill="#63328B"/>
<path id="Polygon 53_38" d="M620.292 3873.59L756.632 3882.1L681.111 3995.95L620.292 3873.59Z" fill="#63328B"/>
<path id="Polygon 54_37" d="M696.453 3752.14L757.34 3874.66L620.756 3866.15L696.453 3752.14Z" fill="#63328B"/>
<path id="Polygon 55_44" d="M536.889 3994.7L673.23 4003.21L597.709 4117.06L536.889 3994.7Z" fill="#63328B"/>
<path id="Polygon 56_44" d="M613.027 3873.62L673.915 3996.14L537.33 3987.63L613.027 3873.62Z" fill="#63328B"/>
</g>
<g id="tr&#195;&#179;jkaty_48">
<path id="Polygon 49_45" d="M520.879 4245.21L657.22 4253.72L581.699 4367.57L520.879 4245.21Z" fill="#63328B"/>
<path id="Polygon 50_45" d="M597.039 4123.76L657.926 4246.28L521.342 4237.77L597.039 4123.76Z" fill="#63328B"/>
<path id="Polygon 51_42" d="M437.129 4366.27L573.47 4374.78L497.949 4488.63L437.129 4366.27Z" fill="#63328B"/>
<path id="Polygon 52_40" d="M513.291 4244.82L574.178 4367.34L437.594 4358.83L513.291 4244.82Z" fill="#63328B"/>
<path id="Polygon 53_39" d="M588.254 4375.69L724.595 4384.19L649.074 4498.05L588.254 4375.69Z" fill="#63328B"/>
<path id="Polygon 54_38" d="M664.416 4254.23L725.303 4376.75L588.719 4368.24L664.416 4254.23Z" fill="#63328B"/>
<path id="Polygon 55_45" d="M504.829 4497.16L641.169 4505.67L565.648 4619.52L504.829 4497.16Z" fill="#63328B"/>
<path id="Polygon 56_45" d="M580.99 4375.71L641.878 4498.23L505.293 4489.72L580.99 4375.71Z" fill="#63328B"/>
</g>
<g id="tr&#195;&#179;jkaty_49">
<path id="Polygon 49_46" d="M353.284 4488.12L489.624 4496.63L414.103 4610.48L353.284 4488.12Z" fill="#63328B"/>
<path id="Polygon 50_46" d="M429.443 4366.67L490.331 4489.19L353.746 4480.68L429.443 4366.67Z" fill="#63328B"/>
<path id="Polygon 51_43" d="M269.534 4609.18L405.874 4617.68L330.353 4731.54L269.534 4609.18Z" fill="#63328B"/>
<path id="Polygon 52_41" d="M345.695 4487.73L406.583 4610.25L269.998 4601.73L345.695 4487.73Z" fill="#63328B"/>
<path id="Polygon 53_40" d="M420.659 4618.6L556.999 4627.1L481.478 4740.95L420.659 4618.6Z" fill="#63328B"/>
<path id="Polygon 54_39" d="M496.82 4497.14L557.708 4619.66L421.123 4611.15L496.82 4497.14Z" fill="#63328B"/>
<path id="Polygon 55_46" d="M337.233 4740.07L473.574 4748.58L398.053 4862.43L337.233 4740.07Z" fill="#63328B"/>
<path id="Polygon 56_46" d="M413.394 4618.62L474.282 4741.14L337.697 4732.63L413.394 4618.62Z" fill="#63328B"/>
</g>
<g id="tr&#195;&#179;jkaty_50">
<path id="Polygon 49_47" d="M186.104 4730.31L322.445 4738.82L246.924 4852.67L186.104 4730.31Z" fill="#63328B"/>
<path id="Polygon 50_47" d="M262.265 4608.86L323.153 4731.38L186.569 4722.87L262.265 4608.86Z" fill="#63328B"/>
<path id="Polygon 53_41" d="M253.481 4860.78L389.822 4869.29L314.301 4983.14L253.481 4860.78Z" fill="#63328B"/>
<path id="Polygon 54_40" d="M329.64 4739.33L390.528 4861.85L253.944 4853.34L329.64 4739.33Z" fill="#63328B"/>
<path id="Polygon 55_47" d="M170.055 4982.26L306.396 4990.77L230.875 5104.62L170.055 4982.26Z" fill="#63328B"/>
<path id="Polygon 56_47" d="M246.216 4860.81L307.104 4983.33L170.52 4974.82L246.216 4860.81Z" fill="#63328B"/>
</g>
<g id="tr&#195;&#179;jkaty_51">
<path id="Polygon 49_48" d="M218.604 4226.75L354.945 4235.26L279.424 4349.11L218.604 4226.75Z" fill="#63328B"/>
<path id="Polygon 50_48" d="M294.765 4105.3L355.653 4227.82L219.069 4219.31L294.765 4105.3Z" fill="#63328B"/>
<path id="Polygon 53_42" d="M285.981 4357.23L422.322 4365.73L346.801 4479.58L285.981 4357.23Z" fill="#63328B"/>
<path id="Polygon 54_41" d="M362.14 4235.77L423.028 4358.29L286.444 4349.78L362.14 4235.77Z" fill="#63328B"/>
<path id="Polygon 55_48" d="M202.555 4478.7L338.896 4487.21L263.375 4601.06L202.555 4478.7Z" fill="#63328B"/>
<path id="Polygon 56_48" d="M278.716 4357.25L339.604 4479.77L203.02 4471.26L278.716 4357.25Z" fill="#63328B"/>
</g>
<g id="tr&#195;&#179;jkaty_52">
<path id="Polygon 49_49" d="M250.266 3724.64L386.607 3733.14L311.086 3847L250.266 3724.64Z" fill="#63328B"/>
<path id="Polygon 50_49" d="M326.427 3603.18L387.315 3725.7L250.731 3717.19L326.427 3603.18Z" fill="#63328B"/>
<path id="Polygon 53_43" d="M317.643 3855.11L453.984 3863.62L378.463 3977.47L317.643 3855.11Z" fill="#63328B"/>
<path id="Polygon 54_42" d="M393.802 3733.66L454.69 3856.18L318.106 3847.67L393.802 3733.66Z" fill="#63328B"/>
<path id="Polygon 55_49" d="M234.217 3976.59L370.558 3985.09L295.037 4098.95L234.217 3976.59Z" fill="#63328B"/>
<path id="Polygon 56_49" d="M310.379 3855.13L371.266 3977.65L234.682 3969.14L310.379 3855.13Z" fill="#63328B"/>
</g>
<g id="tr&#195;&#179;jkaty_53">
<path id="Polygon 49_50" d="M385.737 3985.31L522.078 3993.81L446.556 4107.67L385.737 3985.31Z" fill="#63328B"/>
<path id="Polygon 50_50" d="M461.896 3863.86L522.784 3986.38L386.199 3977.86L461.896 3863.86Z" fill="#63328B"/>
<path id="Polygon 51_44" d="M301.987 4106.37L438.328 4114.87L362.806 4228.72L301.987 4106.37Z" fill="#63328B"/>
<path id="Polygon 52_42" d="M378.148 3984.91L439.036 4107.43L302.451 4098.92L378.148 3984.91Z" fill="#63328B"/>
<path id="Polygon 53_44" d="M453.112 4115.78L589.453 4124.29L513.931 4238.14L453.112 4115.78Z" fill="#63328B"/>
<path id="Polygon 54_43" d="M529.273 3994.33L590.161 4116.85L453.576 4108.34L529.273 3994.33Z" fill="#63328B"/>
<path id="Polygon 55_50" d="M369.71 4236.89L506.05 4245.39L430.529 4359.25L369.71 4236.89Z" fill="#63328B"/>
<path id="Polygon 56_50" d="M445.847 4115.81L506.735 4238.33L370.151 4229.82L445.847 4115.81Z" fill="#63328B"/>
</g>
<g id="tr&#195;&#179;jkaty_54">
<path id="Polygon 49_51" d="M417.446 3482.45L553.787 3490.95L478.265 3604.81L417.446 3482.45Z" fill="#63328B"/>
<path id="Polygon 50_51" d="M493.607 3361L554.495 3483.52L417.91 3475L493.607 3361Z" fill="#63328B"/>
<path id="Polygon 51_45" d="M333.696 3603.5L470.037 3612.01L394.515 3725.86L333.696 3603.5Z" fill="#63328B"/>
<path id="Polygon 52_43" d="M409.857 3482.05L470.745 3604.57L334.16 3596.06L409.857 3482.05Z" fill="#63328B"/>
<path id="Polygon 53_45" d="M484.821 3612.92L621.162 3621.43L545.64 3735.28L484.821 3612.92Z" fill="#63328B"/>
<path id="Polygon 54_44" d="M560.982 3491.47L621.87 3613.99L485.285 3605.48L560.982 3491.47Z" fill="#63328B"/>
<path id="Polygon 55_51" d="M401.419 3734.03L537.759 3742.53L462.238 3856.39L401.419 3734.03Z" fill="#63328B"/>
<path id="Polygon 56_51" d="M477.556 3612.95L538.444 3735.47L401.86 3726.95L477.556 3612.95Z" fill="#63328B"/>
</g>
</g>
<g id="triangles_4">
<g id="tr&#195;&#179;jkaty_55">
<path id="Polygon 49_52" d="M-1.05608 4088.53L135.285 4097.03L59.7635 4210.89L-1.05608 4088.53Z" fill="#63328B"/>
<path id="Polygon 50_52" d="M75.1051 3967.08L135.993 4089.6L-0.591595 4081.08L75.1051 3967.08Z" fill="#63328B"/>
<path id="Polygon 51_46" d="M-84.8061 4209.59L51.5346 4218.09L-23.9865 4331.94L-84.8061 4209.59Z" fill="#63328B"/>
<path id="Polygon 52_44" d="M-8.64491 4088.13L52.2428 4210.65L-84.3416 4202.14L-8.64491 4088.13Z" fill="#63328B"/>
<path id="Polygon 53_46" d="M66.3189 4219L202.66 4227.51L127.138 4341.36L66.3189 4219Z" fill="#63328B"/>
<path id="Polygon 54_45" d="M142.48 4097.55L203.368 4220.07L66.7834 4211.56L142.48 4097.55Z" fill="#63328B"/>
<path id="Polygon 55_52" d="M-17.1069 4340.48L119.234 4348.99L43.7127 4462.84L-17.1069 4340.48Z" fill="#63328B"/>
<path id="Polygon 56_52" d="M59.0543 4219.03L119.942 4341.55L-16.6424 4333.03L59.0543 4219.03Z" fill="#63328B"/>
</g>
<g id="tr&#195;&#179;jkaty_56">
<path id="Polygon 53_47" d="M-101.205 4460.77L35.1361 4469.27L-40.385 4583.13L-101.205 4460.77Z" fill="#63328B"/>
<path id="Polygon 54_46" d="M-25.0433 4339.31L35.8444 4461.83L-100.74 4453.32L-25.0433 4339.31Z" fill="#63328B"/>
</g>
<g id="tr&#195;&#179;jkaty_57">
<path id="Polygon 49_53" d="M-32.767 4591.39L103.574 4599.89L28.0525 4713.75L-32.767 4591.39Z" fill="#63328B"/>
<path id="Polygon 50_53" d="M43.3942 4469.93L104.282 4592.45L-32.3025 4583.94L43.3942 4469.93Z" fill="#63328B"/>
<path id="Polygon 51_47" d="M-116.517 4712.44L19.8236 4720.95L-55.6975 4834.8L-116.517 4712.44Z" fill="#63328B"/>
<path id="Polygon 52_45" d="M-40.3558 4590.99L20.5319 4713.51L-116.053 4705L-40.3558 4590.99Z" fill="#63328B"/>
<path id="Polygon 53_48" d="M34.608 4721.86L170.949 4730.37L95.4275 4844.22L34.608 4721.86Z" fill="#63328B"/>
<path id="Polygon 54_47" d="M110.769 4600.41L171.657 4722.93L35.0725 4714.42L110.769 4600.41Z" fill="#63328B"/>
<path id="Polygon 55_53" d="M-48.8178 4843.34L87.5229 4851.84L12.0018 4965.7L-48.8178 4843.34Z" fill="#63328B"/>
<path id="Polygon 56_53" d="M27.3434 4721.89L88.2311 4844.4L-48.3533 4835.89L27.3434 4721.89Z" fill="#63328B"/>
</g>
<g id="tr&#195;&#179;jkaty_58">
<path id="Polygon 49_54" d="M134.764 4349.57L271.105 4358.08L195.584 4471.93L134.764 4349.57Z" fill="#63328B"/>
<path id="Polygon 50_54" d="M210.925 4228.12L271.813 4350.64L135.229 4342.12L210.925 4228.12Z" fill="#63328B"/>
<path id="Polygon 51_48" d="M51.0142 4470.63L187.355 4479.13L111.834 4592.98L51.0142 4470.63Z" fill="#63328B"/>
<path id="Polygon 52_46" d="M127.175 4349.17L188.063 4471.69L51.4787 4463.18L127.175 4349.17Z" fill="#63328B"/>
<path id="Polygon 55_54" d="M118.713 4601.52L255.054 4610.03L179.533 4723.88L118.713 4601.52Z" fill="#63328B"/>
<path id="Polygon 56_54" d="M194.875 4480.07L255.762 4602.59L119.178 4594.08L194.875 4480.07Z" fill="#63328B"/>
</g>
<g id="tr&#195;&#179;jkaty_59">
<path id="Polygon 49_55" d="M166.495 3846.34L302.835 3854.84L227.314 3968.7L166.495 3846.34Z" fill="#63328B"/>
<path id="Polygon 50_55" d="M242.656 3724.88L303.544 3847.4L166.959 3838.89L242.656 3724.88Z" fill="#63328B"/>
<path id="Polygon 51_49" d="M82.7447 3967.39L219.085 3975.9L143.564 4089.75L82.7447 3967.39Z" fill="#63328B"/>
<path id="Polygon 52_47" d="M158.906 3845.94L219.794 3968.46L83.2092 3959.95L158.906 3845.94Z" fill="#63328B"/>
<path id="Polygon 55_55" d="M150.444 4098.29L286.785 4106.79L211.263 4220.65L150.444 4098.29Z" fill="#63328B"/>
<path id="Polygon 56_55" d="M226.605 3976.83L287.493 4099.35L150.908 4090.84L226.605 3976.83Z" fill="#63328B"/>
</g>
<g id="tr&#195;&#179;jkaty_60">
<path id="Polygon 49_56" d="M102.684 4852.41L239.025 4860.91L163.504 4974.77L102.684 4852.41Z" fill="#63328B"/>
<path id="Polygon 50_56" d="M178.843 4730.95L239.731 4853.47L103.147 4844.96L178.843 4730.95Z" fill="#63328B"/>
<path id="Polygon 51_50" d="M18.9342 4973.46L155.275 4981.97L79.7537 5095.82L18.9342 4973.46Z" fill="#63328B"/>
<path id="Polygon 52_48" d="M95.0953 4852.01L155.983 4974.53L19.3986 4966.02L95.0953 4852.01Z" fill="#63328B"/>
<path id="Polygon 55_56" d="M86.6334 5104.36L222.974 5112.86L147.453 5226.72L86.6334 5104.36Z" fill="#63328B"/>
<path id="Polygon 56_56" d="M162.795 4982.9L223.682 5105.42L87.0979 5096.91L162.795 4982.9Z" fill="#63328B"/>
</g>
<g id="tr&#195;&#179;jkaty_61">
<path id="Polygon 49_57" d="M-64.4721 5094.22L71.8686 5102.73L-3.65254 5216.58L-64.4721 5094.22Z" fill="#63328B"/>
<path id="Polygon 50_57" d="M11.6891 4972.77L72.5768 5095.29L-64.0076 5086.78L11.6891 4972.77Z" fill="#63328B"/>
<path id="Polygon 53_49" d="M2.90291 5224.7L139.244 5233.2L63.7225 5347.05L2.90291 5224.7Z" fill="#63328B"/>
<path id="Polygon 54_48" d="M79.0641 5103.24L139.952 5225.76L3.36739 5217.25L79.0641 5103.24Z" fill="#63328B"/>
<path id="Polygon 55_57" d="M-80.5229 5346.17L55.8178 5354.68L-19.7033 5468.53L-80.5229 5346.17Z" fill="#63328B"/>
<path id="Polygon 56_57" d="M-4.36171 5224.72L56.526 5347.24L-80.0584 5338.73L-4.36171 5224.72Z" fill="#63328B"/>
</g>
</g>
</g>
</svg>
