<svg width="990" height="5244" viewBox="0 0 990 5244" fill="none" xmlns="http://www.w3.org/2000/svg">
<g id="background-mobile">
<g id="triangles">
<g id="tr&#195;&#179;jkaty">
<path id="Polygon 49" d="M700.685 490.167L877.78 490.18L789.244 643.582L700.685 490.167Z" fill="#63328B"/>
<path id="Polygon 50" d="M789.435 326.877L878.095 480.494H700.684L789.435 326.877Z" fill="#63328B"/>
<path id="Polygon 51" d="M602.082 653.55L779.177 653.563L690.641 806.964L602.082 653.55Z" fill="#63328B"/>
<path id="Polygon 52" d="M690.833 490.264L779.493 643.88H602.083L690.833 490.264Z" fill="#63328B"/>
<path id="Polygon 53" d="M798.38 653.55L975.475 653.563L886.939 806.964L798.38 653.55Z" fill="#63328B"/>
<path id="Polygon 54" d="M887.135 490.264L975.795 643.88H798.384L887.135 490.264Z" fill="#63328B"/>
<path id="Polygon 55" d="M700.233 817.451L877.327 817.464L788.791 970.866L700.233 817.451Z" fill="#63328B"/>
<path id="Polygon 56" d="M788.983 654.166L877.643 807.783H700.232L788.983 654.166Z" fill="#63328B"/>
</g>
<g id="tr&#195;&#179;jkaty_2">
<path id="Polygon 49_2" d="M503.419 816.488L680.514 816.501L591.978 969.903L503.419 816.488Z" fill="#63328B"/>
<path id="Polygon 50_2" d="M592.169 653.2L680.829 806.817H503.419L592.169 653.2Z" fill="#63328B"/>
<path id="Polygon 51_2" d="M404.817 979.873L581.911 979.886L493.375 1133.29L404.817 979.873Z" fill="#63328B"/>
<path id="Polygon 52_2" d="M493.568 816.586L582.228 970.203H404.817L493.568 816.586Z" fill="#63328B"/>
<path id="Polygon 53_2" d="M601.114 979.873L778.209 979.886L689.673 1133.29L601.114 979.873Z" fill="#63328B"/>
<path id="Polygon 54_2" d="M689.87 816.586L778.53 970.203H601.12L689.87 816.586Z" fill="#63328B"/>
<path id="Polygon 55_2" d="M502.967 1143.78L680.062 1143.79L591.526 1297.19L502.967 1143.78Z" fill="#63328B"/>
<path id="Polygon 56_2" d="M591.717 980.49L680.377 1134.11H502.966L591.717 980.49Z" fill="#63328B"/>
</g>
<g id="tr&#195;&#179;jkaty_3">
<path id="Polygon 49_3" d="M700.201 1143.36L877.296 1143.38L788.76 1296.78L700.201 1143.36Z" fill="#63328B"/>
<path id="Polygon 50_3" d="M788.952 980.075L877.611 1133.69H700.201L788.952 980.075Z" fill="#63328B"/>
<path id="Polygon 51_3" d="M601.599 1306.75L778.694 1306.76L690.158 1460.16L601.599 1306.75Z" fill="#63328B"/>
<path id="Polygon 52_3" d="M690.35 1143.46L779.01 1297.08H601.599L690.35 1143.46Z" fill="#63328B"/>
<path id="Polygon 53_3" d="M797.897 1306.75L974.992 1306.76L886.455 1460.16L797.897 1306.75Z" fill="#63328B"/>
<path id="Polygon 54_3" d="M886.652 1143.46L975.312 1297.08H797.901L886.652 1143.46Z" fill="#63328B"/>
<path id="Polygon 55_3" d="M699.749 1470.65L876.844 1470.66L788.308 1624.06L699.749 1470.65Z" fill="#63328B"/>
<path id="Polygon 56_3" d="M788.499 1307.36L877.159 1460.98H699.749L788.499 1307.36Z" fill="#63328B"/>
</g>
<g id="tr&#195;&#179;jkaty_4">
<path id="Polygon 49_4" d="M897.464 816.971L1074.56 816.984L986.023 970.385L897.464 816.971Z" fill="#63328B"/>
<path id="Polygon 50_4" d="M986.214 653.683L1074.87 807.299H897.463L986.214 653.683Z" fill="#63328B"/>
<path id="Polygon 51_4" d="M798.861 980.353L975.956 980.366L887.42 1133.77L798.861 980.353Z" fill="#63328B"/>
<path id="Polygon 52_4" d="M887.613 817.068L976.273 970.685H798.862L887.613 817.068Z" fill="#63328B"/>
<path id="Polygon 55_4" d="M897.012 1144.26L1074.11 1144.27L985.571 1297.67L897.012 1144.26Z" fill="#63328B"/>
<path id="Polygon 56_4" d="M985.762 980.973L1074.42 1134.59H897.011L985.762 980.973Z" fill="#63328B"/>
</g>
<g id="tr&#195;&#179;jkaty_5">
<path id="Polygon 49_5" d="M897.95 163.289L1075.05 163.302L986.509 316.704L897.95 163.289Z" fill="#63328B"/>
<path id="Polygon 50_5" d="M986.701 0L1075.36 153.617L897.95 153.617L986.701 0Z" fill="#63328B"/>
<path id="Polygon 51_5" d="M799.348 326.672L976.443 326.685L887.907 480.086L799.348 326.672Z" fill="#63328B"/>
<path id="Polygon 52_5" d="M888.099 163.386L976.759 317.003H799.348L888.099 163.386Z" fill="#63328B"/>
<path id="Polygon 55_5" d="M897.498 490.576L1074.59 490.589L986.057 643.991L897.498 490.576Z" fill="#63328B"/>
<path id="Polygon 56_5" d="M986.249 327.289L1074.91 480.906H897.499L986.249 327.289Z" fill="#63328B"/>
</g>
<g id="tr&#195;&#179;jkaty_6">
<path id="Polygon 49_6" d="M896.496 1470.17L1073.59 1470.19L985.055 1623.59L896.496 1470.17Z" fill="#63328B"/>
<path id="Polygon 50_6" d="M985.246 1306.89L1073.91 1460.5H896.496L985.246 1306.89Z" fill="#63328B"/>
<path id="Polygon 51_6" d="M797.894 1633.56L974.989 1633.57L886.452 1786.97L797.894 1633.56Z" fill="#63328B"/>
<path id="Polygon 52_6" d="M886.645 1470.27L975.305 1623.89H797.894L886.645 1470.27Z" fill="#63328B"/>
<path id="Polygon 55_6" d="M896.044 1797.46L1073.14 1797.47L984.603 1950.88L896.044 1797.46Z" fill="#63328B"/>
<path id="Polygon 56_6" d="M984.794 1634.17L1073.45 1787.79H896.044L984.794 1634.17Z" fill="#63328B"/>
</g>
<g id="tr&#195;&#179;jkaty_7">
<path id="Polygon 49_7" d="M699.716 1796.53L876.811 1796.55L788.275 1949.95L699.716 1796.53Z" fill="#63328B"/>
<path id="Polygon 50_7" d="M788.466 1633.24L877.126 1786.86H699.715L788.466 1633.24Z" fill="#63328B"/>
<path id="Polygon 51_7" d="M601.113 1959.92L778.208 1959.93L689.672 2113.33L601.113 1959.92Z" fill="#63328B"/>
<path id="Polygon 52_7" d="M689.865 1796.63L778.525 1950.25H601.114L689.865 1796.63Z" fill="#63328B"/>
<path id="Polygon 53_4" d="M797.411 1959.92L974.506 1959.93L885.97 2113.33L797.411 1959.92Z" fill="#63328B"/>
<path id="Polygon 54_4" d="M886.165 1796.63L974.825 1950.25H797.415L886.165 1796.63Z" fill="#63328B"/>
<path id="Polygon 55_7" d="M699.264 2123.82L876.359 2123.83L787.823 2277.23L699.264 2123.82Z" fill="#63328B"/>
<path id="Polygon 56_7" d="M788.012 1960.53L876.672 2114.15H699.261L788.012 1960.53Z" fill="#63328B"/>
</g>
<g id="tr&#195;&#179;jkaty_8">
<path id="Polygon 49_8" d="M503.419 1470.66L680.514 1470.67L591.978 1624.07L503.419 1470.66Z" fill="#63328B"/>
<path id="Polygon 50_8" d="M592.169 1307.37L680.829 1460.98H503.419L592.169 1307.37Z" fill="#63328B"/>
<path id="Polygon 51_8" d="M404.817 1634.04L581.911 1634.05L493.375 1787.45L404.817 1634.04Z" fill="#63328B"/>
<path id="Polygon 52_8" d="M493.568 1470.75L582.228 1624.37H404.817L493.568 1470.75Z" fill="#63328B"/>
<path id="Polygon 53_5" d="M601.114 1634.04L778.209 1634.05L689.673 1787.45L601.114 1634.04Z" fill="#63328B"/>
<path id="Polygon 54_5" d="M689.87 1470.75L778.53 1624.37H601.12L689.87 1470.75Z" fill="#63328B"/>
<path id="Polygon 55_8" d="M502.967 1797.46L680.062 1797.47L591.526 1950.88L502.967 1797.46Z" fill="#63328B"/>
<path id="Polygon 56_8" d="M591.717 1634.66L680.377 1788.27H502.966L591.717 1634.66Z" fill="#63328B"/>
</g>
<g id="tr&#195;&#179;jkaty_9">
<path id="Polygon 49_9" d="M307.12 1144.3L484.215 1144.31L395.679 1297.71L307.12 1144.3Z" fill="#63328B"/>
<path id="Polygon 50_9" d="M395.87 981.012L484.53 1134.63H307.12L395.87 981.012Z" fill="#63328B"/>
<path id="Polygon 51_9" d="M208.518 1307.68L385.613 1307.7L297.077 1461.1L208.518 1307.68Z" fill="#63328B"/>
<path id="Polygon 52_9" d="M297.269 1144.4L385.929 1298.02H208.518L297.269 1144.4Z" fill="#63328B"/>
<path id="Polygon 53_6" d="M404.816 1307.68L581.91 1307.7L493.374 1461.1L404.816 1307.68Z" fill="#63328B"/>
<path id="Polygon 54_6" d="M493.571 1144.4L582.231 1298.02H404.82L493.571 1144.4Z" fill="#63328B"/>
<path id="Polygon 55_9" d="M306.668 1471.1L483.763 1471.12L395.227 1624.52L306.668 1471.1Z" fill="#63328B"/>
<path id="Polygon 56_9" d="M395.418 1308.3L484.078 1461.92H306.668L395.418 1308.3Z" fill="#63328B"/>
</g>
<g id="tr&#195;&#179;jkaty_10">
<path id="Polygon 49_10" d="M502.939 2123.37L680.034 2123.38L591.497 2276.78L502.939 2123.37Z" fill="#63328B"/>
<path id="Polygon 50_10" d="M591.689 1960.08L680.349 2113.7H502.938L591.689 1960.08Z" fill="#63328B"/>
<path id="Polygon 51_10" d="M404.336 2286.75L581.431 2286.77L492.895 2440.17L404.336 2286.75Z" fill="#63328B"/>
<path id="Polygon 52_10" d="M493.087 2123.47L581.747 2277.08H404.337L493.087 2123.47Z" fill="#63328B"/>
<path id="Polygon 53_7" d="M600.634 2286.75L777.729 2286.77L689.193 2440.17L600.634 2286.75Z" fill="#63328B"/>
<path id="Polygon 54_7" d="M689.389 2123.47L778.049 2277.08H600.638L689.389 2123.47Z" fill="#63328B"/>
<path id="Polygon 55_10" d="M502.486 2450.66L679.581 2450.67L591.045 2604.07L502.486 2450.66Z" fill="#63328B"/>
<path id="Polygon 56_10" d="M591.237 2287.37L679.897 2440.99H502.486L591.237 2287.37Z" fill="#63328B"/>
</g>
<g id="tr&#195;&#179;jkaty_11">
<path id="Polygon 49_11" d="M307.12 1797.98L484.215 1797.99L395.679 1951.39L307.12 1797.98Z" fill="#63328B"/>
<path id="Polygon 50_11" d="M395.87 1634.69L484.53 1788.31H307.12L395.87 1634.69Z" fill="#63328B"/>
<path id="Polygon 51_11" d="M208.518 1961.36L385.613 1961.38L297.077 2114.78L208.518 1961.36Z" fill="#63328B"/>
<path id="Polygon 52_11" d="M297.269 1798.08L385.929 1951.69H208.518L297.269 1798.08Z" fill="#63328B"/>
<path id="Polygon 53_8" d="M404.816 1961.36L581.91 1961.38L493.374 2114.78L404.816 1961.36Z" fill="#63328B"/>
<path id="Polygon 54_8" d="M493.571 1798.08L582.231 1951.69H404.82L493.571 1798.08Z" fill="#63328B"/>
<path id="Polygon 55_11" d="M306.668 2124.78L483.763 2124.8L395.227 2278.2L306.668 2124.78Z" fill="#63328B"/>
<path id="Polygon 56_11" d="M395.418 1961.98L484.078 2115.6H306.668L395.418 1961.98Z" fill="#63328B"/>
</g>
<g id="tr&#195;&#179;jkaty_12">
<path id="Polygon 49_12" d="M302.154 2450.22L479.249 2450.23L390.713 2603.63L302.154 2450.22Z" fill="#63328B"/>
<path id="Polygon 50_12" d="M394.905 2286.93L483.565 2440.54H306.154L394.905 2286.93Z" fill="#63328B"/>
<path id="Polygon 53_9" d="M403.849 2613.6L580.944 2613.61L492.408 2767.01L403.849 2613.6Z" fill="#63328B"/>
<path id="Polygon 54_9" d="M492.605 2450.31L581.265 2603.93H403.854L492.605 2450.31Z" fill="#63328B"/>
</g>
<g id="tr&#195;&#179;jkaty_13">
<path id="Polygon 49_13" d="M-85.9569 1798.46L91.138 1798.48L2.60191 1951.88L-85.9569 1798.46Z" fill="#63328B"/>
<path id="Polygon 50_13" d="M2.79139 1635.18L91.4513 1788.79H-85.9594L2.79139 1635.18Z" fill="#63328B"/>
<path id="Polygon 53_10" d="M12.7374 1960.85L189.832 1960.86L101.296 2114.26L12.7374 1960.85Z" fill="#63328B"/>
<path id="Polygon 54_10" d="M100.489 1798.56L189.149 1952.18H11.7379L100.489 1798.56Z" fill="#63328B"/>
</g>
<g id="tr&#195;&#179;jkaty_14">
<path id="Polygon 49_14" d="M110.339 2124.82L287.434 2124.84L198.898 2278.24L110.339 2124.82Z" fill="#63328B"/>
<path id="Polygon 50_14" d="M199.089 1961.54L287.749 2115.15H110.338L199.089 1961.54Z" fill="#63328B"/>
<path id="Polygon 53_11" d="M208.034 2288.21L385.129 2288.22L296.593 2441.62L208.034 2288.21Z" fill="#63328B"/>
<path id="Polygon 54_11" d="M296.79 2124.92L385.45 2278.54H208.04L296.79 2124.92Z" fill="#63328B"/>
</g>
<g id="tr&#195;&#179;jkaty_15">
<path id="Polygon 49_15" d="M110.822 1471.62L287.917 1471.63L199.381 1625.04L110.822 1471.62Z" fill="#63328B"/>
<path id="Polygon 50_15" d="M199.573 1308.33L288.233 1461.95H110.822L199.573 1308.33Z" fill="#63328B"/>
<path id="Polygon 51_12" d="M12.2199 1635L189.315 1635.02L100.779 1788.42L12.2199 1635Z" fill="#63328B"/>
<path id="Polygon 52_12" d="M100.971 1471.72L189.631 1625.34H12.2203L100.971 1471.72Z" fill="#63328B"/>
<path id="Polygon 53_12" d="M208.518 1635L385.613 1635.02L297.077 1788.42L208.518 1635Z" fill="#63328B"/>
<path id="Polygon 54_12" d="M297.274 1471.72L385.934 1625.34H208.523L297.274 1471.72Z" fill="#63328B"/>
<path id="Polygon 55_12" d="M110.37 1798.42L287.465 1798.44L198.929 1951.84L110.37 1798.42Z" fill="#63328B"/>
<path id="Polygon 56_12" d="M199.12 1635.62L287.78 1789.24H110.37L199.12 1635.62Z" fill="#63328B"/>
</g>
</g>
<rect id="Rectangle 21" x="-730.139" y="2357.61" width="829.363" height="3369.06" transform="rotate(-30.8417 -730.139 2357.61)" fill="#32868B"/>
</g>
</svg>
