<svg width="1920" height="7210" viewBox="0 0 1920 7210" fill="none" xmlns="http://www.w3.org/2000/svg">
<g id="triangles">
<g id="tr&#195;&#179;jkaty">
<path id="Polygon 49" d="M1361.66 957.797L1727.94 957.824L1544.82 1275.1L1361.66 957.797Z" fill="#63328B"/>
<path id="Polygon 50" d="M1545.22 620.074L1728.6 937.797H1361.66L1545.22 620.074Z" fill="#63328B"/>
<path id="Polygon 51" d="M1157.72 1295.72L1524 1295.75L1340.89 1613.03L1157.72 1295.72Z" fill="#63328B"/>
<path id="Polygon 52" d="M1341.28 958L1524.66 1275.72H1157.72L1341.28 958Z" fill="#63328B"/>
<path id="Polygon 53" d="M1563.72 1295.72L1930 1295.75L1746.89 1613.03L1563.72 1295.72Z" fill="#63328B"/>
<path id="Polygon 54" d="M1747.28 958L1930.66 1275.72H1563.72L1747.28 958Z" fill="#63328B"/>
<path id="Polygon 55" d="M1360.72 1634.72L1727 1634.75L1543.89 1952.03L1360.72 1634.72Z" fill="#63328B"/>
<path id="Polygon 56" d="M1544.28 1297L1727.66 1614.72H1360.72L1544.28 1297Z" fill="#63328B"/>
</g>
<g id="tr&#195;&#179;jkaty_2">
<path id="Polygon 49_2" d="M953.66 1632.72L1319.94 1632.75L1136.82 1950.03L953.66 1632.72Z" fill="#63328B"/>
<path id="Polygon 50_2" d="M1137.22 1295L1320.6 1612.72H953.661L1137.22 1295Z" fill="#63328B"/>
<path id="Polygon 51_2" d="M749.723 1970.65L1116 1970.68L932.887 2287.95L749.723 1970.65Z" fill="#63328B"/>
<path id="Polygon 52_2" d="M933.285 1632.93L1116.66 1950.65H749.723L933.285 1632.93Z" fill="#63328B"/>
<path id="Polygon 53_2" d="M1155.72 1970.65L1522 1970.68L1338.89 2287.95L1155.72 1970.65Z" fill="#63328B"/>
<path id="Polygon 54_2" d="M1339.28 1632.93L1522.66 1950.65H1155.72L1339.28 1632.93Z" fill="#63328B"/>
<path id="Polygon 55_2" d="M952.723 2309.65L1319 2309.68L1135.89 2626.95L952.723 2309.65Z" fill="#63328B"/>
<path id="Polygon 56_2" d="M1136.28 1971.93L1319.66 2289.65H952.723L1136.28 1971.93Z" fill="#63328B"/>
</g>
<g id="tr&#195;&#179;jkaty_3">
<path id="Polygon 49_3" d="M1360.66 2308.79L1726.94 2308.82L1543.82 2626.1L1360.66 2308.79Z" fill="#63328B"/>
<path id="Polygon 50_3" d="M1544.22 1971.07L1727.6 2288.79H1360.66L1544.22 1971.07Z" fill="#63328B"/>
<path id="Polygon 51_3" d="M1156.72 2646.72L1523 2646.75L1339.89 2964.02L1156.72 2646.72Z" fill="#63328B"/>
<path id="Polygon 52_3" d="M1340.28 2309L1523.66 2626.72H1156.72L1340.28 2309Z" fill="#63328B"/>
<path id="Polygon 53_3" d="M1562.72 2646.72L1929 2646.75L1745.89 2964.02L1562.72 2646.72Z" fill="#63328B"/>
<path id="Polygon 54_3" d="M1746.28 2309L1929.66 2626.72H1562.72L1746.28 2309Z" fill="#63328B"/>
<path id="Polygon 55_3" d="M1359.72 2985.72L1726 2985.75L1542.89 3303.02L1359.72 2985.72Z" fill="#63328B"/>
<path id="Polygon 56_3" d="M1543.28 2648L1726.66 2965.72H1359.72L1543.28 2648Z" fill="#63328B"/>
</g>
<g id="tr&#195;&#179;jkaty_4">
<path id="Polygon 49_4" d="M1768.66 1633.72L2134.94 1633.75L1951.82 1951.03L1768.66 1633.72Z" fill="#63328B"/>
<path id="Polygon 50_4" d="M1952.22 1296L2135.6 1613.72H1768.66L1952.22 1296Z" fill="#63328B"/>
<path id="Polygon 51_4" d="M1564.72 1971.65L1931 1971.68L1747.89 2288.95L1564.72 1971.65Z" fill="#63328B"/>
<path id="Polygon 52_4" d="M1748.28 1633.93L1931.66 1951.65H1564.72L1748.28 1633.93Z" fill="#63328B"/>
<path id="Polygon 55_4" d="M1767.72 2310.65L2134 2310.68L1950.89 2627.95L1767.72 2310.65Z" fill="#63328B"/>
<path id="Polygon 56_4" d="M1951.28 1972.93L2134.66 2290.65H1767.72L1951.28 1972.93Z" fill="#63328B"/>
</g>
<g id="tr&#195;&#179;jkaty_5">
<path id="Polygon 49_5" d="M1769.66 281.723L2135.94 281.75L1952.82 599.027L1769.66 281.723Z" fill="#63328B"/>
<path id="Polygon 50_5" d="M1953.22 -56L2136.6 261.722L1769.66 261.722L1953.22 -56Z" fill="#63328B"/>
<path id="Polygon 51_5" d="M1565.72 619.649L1932 619.676L1748.89 936.953L1565.72 619.649Z" fill="#63328B"/>
<path id="Polygon 52_5" d="M1749.28 281.926L1932.66 599.648H1565.72L1749.28 281.926Z" fill="#63328B"/>
<path id="Polygon 55_5" d="M1768.72 958.649L2135 958.676L1951.89 1275.95L1768.72 958.649Z" fill="#63328B"/>
<path id="Polygon 56_5" d="M1952.28 620.926L2135.66 938.648H1768.72L1952.28 620.926Z" fill="#63328B"/>
</g>
<g id="tr&#195;&#179;jkaty_6">
<path id="Polygon 49_6" d="M1766.66 2984.72L2132.94 2984.75L1949.82 3302.03L1766.66 2984.72Z" fill="#63328B"/>
<path id="Polygon 50_6" d="M1950.22 2647L2133.6 2964.72H1766.66L1950.22 2647Z" fill="#63328B"/>
<path id="Polygon 51_6" d="M1562.72 3322.65L1929 3322.68L1745.89 3639.95L1562.72 3322.65Z" fill="#63328B"/>
<path id="Polygon 52_6" d="M1746.28 2984.93L1929.66 3302.65H1562.72L1746.28 2984.93Z" fill="#63328B"/>
<path id="Polygon 55_6" d="M1765.72 3661.65L2132 3661.68L1948.89 3978.95L1765.72 3661.65Z" fill="#63328B"/>
<path id="Polygon 56_6" d="M1949.28 3323.93L2132.66 3641.65H1765.72L1949.28 3323.93Z" fill="#63328B"/>
</g>
<g id="tr&#195;&#179;jkaty_7">
<path id="Polygon 49_7" d="M1359.66 3659.72L1725.94 3659.75L1542.82 3977.03L1359.66 3659.72Z" fill="#63328B"/>
<path id="Polygon 50_7" d="M1543.22 3322L1726.6 3639.72H1359.66L1543.22 3322Z" fill="#63328B"/>
<path id="Polygon 51_7" d="M1155.72 3997.65L1522 3997.68L1338.89 4314.95L1155.72 3997.65Z" fill="#63328B"/>
<path id="Polygon 52_7" d="M1339.28 3659.93L1522.66 3977.65H1155.72L1339.28 3659.93Z" fill="#63328B"/>
<path id="Polygon 53_4" d="M1561.72 3997.65L1928 3997.68L1744.89 4314.95L1561.72 3997.65Z" fill="#63328B"/>
<path id="Polygon 54_4" d="M1745.28 3659.93L1928.66 3977.65H1561.72L1745.28 3659.93Z" fill="#63328B"/>
<path id="Polygon 55_7" d="M1358.72 4336.65L1725 4336.68L1541.89 4653.95L1358.72 4336.65Z" fill="#63328B"/>
<path id="Polygon 56_7" d="M1542.28 3998.93L1725.66 4316.65H1358.72L1542.28 3998.93Z" fill="#63328B"/>
</g>
<g id="tr&#195;&#179;jkaty_8">
<path id="Polygon 49_8" d="M953.66 2985.72L1319.94 2985.75L1136.82 3303.03L953.66 2985.72Z" fill="#63328B"/>
<path id="Polygon 50_8" d="M1137.22 2648L1320.6 2965.72H953.661L1137.22 2648Z" fill="#63328B"/>
<path id="Polygon 51_8" d="M749.723 3323.65L1116 3323.68L932.887 3640.95L749.723 3323.65Z" fill="#63328B"/>
<path id="Polygon 52_8" d="M933.285 2985.93L1116.66 3303.65H749.723L933.285 2985.93Z" fill="#63328B"/>
<path id="Polygon 53_5" d="M1155.72 3323.65L1522 3323.68L1338.89 3640.95L1155.72 3323.65Z" fill="#63328B"/>
<path id="Polygon 54_5" d="M1339.28 2985.93L1522.66 3303.65H1155.72L1339.28 2985.93Z" fill="#63328B"/>
<path id="Polygon 55_8" d="M952.723 3661.65L1319 3661.68L1135.89 3978.95L952.723 3661.65Z" fill="#63328B"/>
<path id="Polygon 56_8" d="M1136.28 3324.93L1319.66 3642.65H952.723L1136.28 3324.93Z" fill="#63328B"/>
</g>
<g id="tr&#195;&#179;jkaty_9">
<path id="Polygon 49_9" d="M547.66 2310.72L913.942 2310.75L730.825 2628.03L547.66 2310.72Z" fill="#63328B"/>
<path id="Polygon 50_9" d="M731.222 1973L914.596 2290.72H547.661L731.222 1973Z" fill="#63328B"/>
<path id="Polygon 51_9" d="M343.723 2648.65L710.005 2648.68L526.887 2965.95L343.723 2648.65Z" fill="#63328B"/>
<path id="Polygon 52_9" d="M527.285 2310.93L710.658 2628.65H343.723L527.285 2310.93Z" fill="#63328B"/>
<path id="Polygon 53_6" d="M749.723 2648.65L1116 2648.68L932.887 2965.95L749.723 2648.65Z" fill="#63328B"/>
<path id="Polygon 54_6" d="M933.285 2310.93L1116.66 2628.65H749.723L933.285 2310.93Z" fill="#63328B"/>
<path id="Polygon 55_9" d="M546.723 2986.65L913.005 2986.68L729.887 3303.95L546.723 2986.65Z" fill="#63328B"/>
<path id="Polygon 56_9" d="M730.285 2649.93L913.658 2967.65H546.723L730.285 2649.93Z" fill="#63328B"/>
</g>
<g id="tr&#195;&#179;jkaty_10">
<path id="Polygon 49_10" d="M952.66 4335.72L1318.94 4335.75L1135.82 4653.03L952.66 4335.72Z" fill="#63328B"/>
<path id="Polygon 50_10" d="M1136.22 3998L1319.6 4315.72H952.661L1136.22 3998Z" fill="#63328B"/>
<path id="Polygon 51_10" d="M748.723 4673.65L1115 4673.68L931.887 4990.95L748.723 4673.65Z" fill="#63328B"/>
<path id="Polygon 52_10" d="M932.285 4335.93L1115.66 4653.65H748.723L932.285 4335.93Z" fill="#63328B"/>
<path id="Polygon 53_7" d="M1154.72 4673.65L1521 4673.68L1337.89 4990.95L1154.72 4673.65Z" fill="#63328B"/>
<path id="Polygon 54_7" d="M1338.28 4335.93L1521.66 4653.65H1154.72L1338.28 4335.93Z" fill="#63328B"/>
<path id="Polygon 55_10" d="M951.723 5012.65L1318 5012.68L1134.89 5329.95L951.723 5012.65Z" fill="#63328B"/>
<path id="Polygon 56_10" d="M1135.28 4674.93L1318.66 4992.65H951.723L1135.28 4674.93Z" fill="#63328B"/>
</g>
<g id="tr&#195;&#179;jkaty_11">
<path id="Polygon 49_11" d="M547.66 3662.72L913.942 3662.75L730.825 3980.03L547.66 3662.72Z" fill="#63328B"/>
<path id="Polygon 50_11" d="M731.222 3325L914.596 3642.72H547.661L731.222 3325Z" fill="#63328B"/>
<path id="Polygon 51_11" d="M343.723 4000.65L710.005 4000.68L526.887 4317.95L343.723 4000.65Z" fill="#63328B"/>
<path id="Polygon 52_11" d="M527.285 3662.93L710.658 3980.65H343.723L527.285 3662.93Z" fill="#63328B"/>
<path id="Polygon 53_8" d="M749.723 4000.65L1116 4000.68L932.887 4317.95L749.723 4000.65Z" fill="#63328B"/>
<path id="Polygon 54_8" d="M933.285 3662.93L1116.66 3980.65H749.723L933.285 3662.93Z" fill="#63328B"/>
<path id="Polygon 55_11" d="M546.723 4338.65L913.005 4338.68L729.887 4655.95L546.723 4338.65Z" fill="#63328B"/>
<path id="Polygon 56_11" d="M730.285 4001.93L913.658 4319.65H546.723L730.285 4001.93Z" fill="#63328B"/>
</g>
<g id="tr&#195;&#179;jkaty_12">
<path id="Polygon 49_12" d="M545.66 5011.72L911.942 5011.75L728.825 5329.03L545.66 5011.72Z" fill="#63328B"/>
<path id="Polygon 50_12" d="M729.222 4674L912.596 4991.72H545.661L729.222 4674Z" fill="#63328B"/>
<path id="Polygon 51_12" d="M341.723 5349.65L708.005 5349.68L524.887 5666.95L341.723 5349.65Z" fill="#63328B"/>
<path id="Polygon 52_12" d="M525.285 5011.93L708.658 5329.65H341.723L525.285 5011.93Z" fill="#63328B"/>
<path id="Polygon 53_9" d="M747.723 5349.65L1114 5349.68L930.887 5666.95L747.723 5349.65Z" fill="#63328B"/>
<path id="Polygon 54_9" d="M931.285 5011.93L1114.66 5329.65H747.723L931.285 5011.93Z" fill="#63328B"/>
<path id="Polygon 55_12" d="M544.723 5688.65L911.005 5688.68L727.887 6005.95L544.723 5688.65Z" fill="#63328B"/>
<path id="Polygon 56_12" d="M728.285 5350.93L911.658 5668.65H544.723L728.285 5350.93Z" fill="#63328B"/>
</g>
<g id="tr&#195;&#179;jkaty_13">
<path id="Polygon 49_13" d="M137.66 5689.72L503.942 5689.75L320.825 6007.03L137.66 5689.72Z" fill="#63328B"/>
<path id="Polygon 50_13" d="M321.222 5352L504.596 5669.72H137.661L321.222 5352Z" fill="#63328B"/>
<path id="Polygon 51_13" d="M-66.2771 6027.65L300.005 6027.68L116.887 6344.95L-66.2771 6027.65Z" fill="#63328B"/>
<path id="Polygon 52_13" d="M117.285 5689.93L300.658 6007.65H-66.2768L117.285 5689.93Z" fill="#63328B"/>
<path id="Polygon 53_10" d="M339.723 6027.65L706.005 6027.68L522.887 6344.95L339.723 6027.65Z" fill="#63328B"/>
<path id="Polygon 54_10" d="M523.285 5689.93L706.658 6007.65H339.723L523.285 5689.93Z" fill="#63328B"/>
<path id="Polygon 55_13" d="M136.723 6366.65L503.005 6366.68L319.887 6683.95L136.723 6366.65Z" fill="#63328B"/>
<path id="Polygon 56_13" d="M320.285 6028.93L503.658 6346.65H136.723L320.285 6028.93Z" fill="#63328B"/>
</g>
<g id="tr&#195;&#179;jkaty_14">
<path id="Polygon 49_14" d="M-269.34 6365.72L96.9423 6365.75L-86.1752 6683.03L-269.34 6365.72Z" fill="#63328B"/>
<path id="Polygon 50_14" d="M-85.7779 6028L97.5957 6345.72H-269.339L-85.7779 6028Z" fill="#63328B"/>
<path id="Polygon 53_11" d="M-67.2771 6703.65L299.005 6703.68L115.887 7020.95L-67.2771 6703.65Z" fill="#63328B"/>
<path id="Polygon 54_11" d="M116.285 6365.93L299.658 6683.65H-67.2768L116.285 6365.93Z" fill="#63328B"/>
<path id="Polygon 55_14" d="M-270.277 7042.65L96.0048 7042.68L-87.1127 7359.95L-270.277 7042.65Z" fill="#63328B"/>
<path id="Polygon 56_14" d="M-86.7154 6704.93L96.6582 7022.65H-270.277L-86.7154 6704.93Z" fill="#63328B"/>
</g>
<g id="tr&#195;&#179;jkaty_15">
<path id="Polygon 49_15" d="M-266.34 5012.72L99.9423 5012.75L-83.1752 5330.03L-266.34 5012.72Z" fill="#63328B"/>
<path id="Polygon 50_15" d="M-82.7779 4675L100.596 4992.72H-266.339L-82.7779 4675Z" fill="#63328B"/>
<path id="Polygon 53_12" d="M-64.2771 5350.65L302.005 5350.68L118.887 5667.95L-64.2771 5350.65Z" fill="#63328B"/>
<path id="Polygon 54_12" d="M119.285 5012.93L302.658 5330.65H-64.2768L119.285 5012.93Z" fill="#63328B"/>
<path id="Polygon 55_15" d="M-267.277 5689.65L99.0048 5689.68L-84.1127 6006.95L-267.277 5689.65Z" fill="#63328B"/>
<path id="Polygon 56_15" d="M-83.7154 5351.93L99.6582 5669.65H-267.277L-83.7154 5351.93Z" fill="#63328B"/>
</g>
<g id="tr&#195;&#179;jkaty_16">
<path id="Polygon 49_16" d="M-265.34 3663.72L100.942 3663.75L-82.1752 3981.03L-265.34 3663.72Z" fill="#63328B"/>
<path id="Polygon 50_16" d="M-81.7779 3326L101.596 3643.72H-265.339L-81.7779 3326Z" fill="#63328B"/>
<path id="Polygon 53_13" d="M-63.2771 4001.65L303.005 4001.68L119.887 4318.95L-63.2771 4001.65Z" fill="#63328B"/>
<path id="Polygon 54_13" d="M120.285 3663.93L303.658 3981.65H-63.2768L120.285 3663.93Z" fill="#63328B"/>
<path id="Polygon 55_16" d="M-266.277 4340.65L100.005 4340.68L-83.1127 4657.95L-266.277 4340.65Z" fill="#63328B"/>
<path id="Polygon 56_16" d="M-82.7154 4002.93L100.658 4320.65H-266.277L-82.7154 4002.93Z" fill="#63328B"/>
</g>
<g id="tr&#195;&#179;jkaty_17">
<path id="Polygon 49_17" d="M140.66 4338.72L506.942 4338.75L323.825 4656.03L140.66 4338.72Z" fill="#63328B"/>
<path id="Polygon 50_17" d="M324.222 4001L507.596 4318.72H140.661L324.222 4001Z" fill="#63328B"/>
<path id="Polygon 51_14" d="M-63.2771 4676.65L303.005 4676.68L119.887 4993.95L-63.2771 4676.65Z" fill="#63328B"/>
<path id="Polygon 52_14" d="M120.285 4338.93L303.658 4656.65H-63.2768L120.285 4338.93Z" fill="#63328B"/>
<path id="Polygon 53_14" d="M342.723 4676.65L709.005 4676.68L525.887 4993.95L342.723 4676.65Z" fill="#63328B"/>
<path id="Polygon 54_14" d="M526.285 4338.93L709.658 4656.65H342.723L526.285 4338.93Z" fill="#63328B"/>
<path id="Polygon 55_17" d="M139.723 5014.65L506.005 5014.68L322.887 5331.95L139.723 5014.65Z" fill="#63328B"/>
<path id="Polygon 56_17" d="M323.285 4677.93L506.658 4995.65H139.723L323.285 4677.93Z" fill="#63328B"/>
</g>
<g id="tr&#195;&#179;jkaty_18">
<path id="Polygon 49_18" d="M141.66 2987.72L507.942 2987.75L324.825 3305.03L141.66 2987.72Z" fill="#63328B"/>
<path id="Polygon 50_18" d="M325.222 2650L508.596 2967.72H141.661L325.222 2650Z" fill="#63328B"/>
<path id="Polygon 51_15" d="M-62.2771 3325.65L304.005 3325.68L120.887 3642.95L-62.2771 3325.65Z" fill="#63328B"/>
<path id="Polygon 52_15" d="M121.285 2987.93L304.658 3305.65H-62.2768L121.285 2987.93Z" fill="#63328B"/>
<path id="Polygon 53_15" d="M343.723 3325.65L710.005 3325.68L526.887 3642.95L343.723 3325.65Z" fill="#63328B"/>
<path id="Polygon 54_15" d="M527.285 2987.93L710.658 3305.65H343.723L527.285 2987.93Z" fill="#63328B"/>
<path id="Polygon 55_18" d="M140.723 3663.65L507.005 3663.68L323.887 3980.95L140.723 3663.65Z" fill="#63328B"/>
<path id="Polygon 56_18" d="M324.285 3326.93L507.658 3644.65H140.723L324.285 3326.93Z" fill="#63328B"/>
</g>
</g>
</svg>
